<svg xmlns="http://www.w3.org/2000/svg" viewBox="0 0 240.681 57.316"><title>Asset 32</title><g id="Layer_2" data-name="Layer 2"><g id="Layer_1-2" data-name="Layer 1"><path d="M240.681,30.1c-.135.858-.247,1.72-.407,2.572a24.508,24.508,0,0,1-6.45,12.383,37.794,37.794,0,0,1-17.035,10.2,48.517,48.517,0,0,1-11.621,1.981,47.989,47.989,0,0,1-20.519-3.255,35.314,35.314,0,0,1-14.3-9.971,23.029,23.029,0,0,1-5.838-16.8,22.8,22.8,0,0,1,4.982-12.692c4.488-5.779,10.432-9.445,17.252-11.814A46.989,46.989,0,0,1,203.893.14c9.544.327,18.412,2.842,26.081,8.762,5,3.857,8.638,8.686,10.094,14.953.216.929.285,1.892.434,2.838a6.475,6.475,0,0,0,.179.676ZM202.33,49.233a36.063,36.063,0,0,0,12.182-2.122,25.371,25.371,0,0,0,11.481-8A15.951,15.951,0,0,0,229.46,25.7a18.322,18.322,0,0,0-6.674-10.637,30.323,30.323,0,0,0-16.628-6.625A34.345,34.345,0,0,0,192.548,9.7a25.971,25.971,0,0,0-13.444,8.65c-3.514,4.449-4.73,9.452-3.088,14.961a19.07,19.07,0,0,0,7.234,9.824C188.98,47.442,195.556,49.077,202.33,49.233Z" fill="#00549d"/><path d="M70.038,13.019,61.62,16.774c-1.145.511-2.281,1.045-3.442,1.518a.907.907,0,0,1-.8-.108A25.058,25.058,0,0,0,42.24,11.059c-7.191-.915-14,.281-20.1,4.405a16.509,16.509,0,0,0-7.287,9.886,13.668,13.668,0,0,0,2.393,11.606,21.962,21.962,0,0,0,10.927,7.755,28.852,28.852,0,0,0,11.813,1.6c6.63-.474,12.626-2.563,17.4-7.424a14.522,14.522,0,0,0,3.376-5.241H24.481V25.676H76.094c.015,1.572.155,3.141.021,4.686a23.355,23.355,0,0,1-4.6,11.936,32.1,32.1,0,0,1-8.52,7.91A42.926,42.926,0,0,1,46.368,56.5a49.029,49.029,0,0,1-13.085.436A48.238,48.238,0,0,1,20.5,53.943,37.147,37.147,0,0,1,8.031,46.122,25.468,25.468,0,0,1,.9,34.724,21.754,21.754,0,0,1,2.6,18.207C5.616,12.4,10.334,8.334,15.992,5.274A40.545,40.545,0,0,1,30.2.633,63.019,63.019,0,0,1,39.368.024,44.431,44.431,0,0,1,63.134,7.015a34.5,34.5,0,0,1,6.427,5.4C69.724,12.591,69.859,12.791,70.038,13.019Z" fill="#00549d"/><path d="M152.026,44.122a34.446,34.446,0,0,1-10.754,8.2,45.554,45.554,0,0,1-14.616,4.4,48.449,48.449,0,0,1-12.3.127c-8.942-1.087-17.092-4.1-23.849-10.256a24.875,24.875,0,0,1-8.082-13.679,21.993,21.993,0,0,1,3.567-17.142C90.005,9.8,95.675,5.943,102.252,3.285A44.046,44.046,0,0,1,112.8.481a53.293,53.293,0,0,1,9.819-.416,47.732,47.732,0,0,1,14.054,2.769,40.389,40.389,0,0,1,9.409,4.883,28.954,28.954,0,0,1,9.82,11.162,20.936,20.936,0,0,1,2.13,11.485c-.094.9-.242,1.793-.344,2.692-.053.462-.264.612-.738.612q-24.789-.015-49.579-.005H106.01V25.618h37.832c-.44-1.191-.728-2.224-1.187-3.174A19.042,19.042,0,0,0,134.63,14.2a28.567,28.567,0,0,0-11.6-3.565,30.226,30.226,0,0,0-13.912,1.806c-4.818,1.843-8.915,4.672-11.4,9.33-2.864,5.368-2.355,10.6,1.2,15.485,3.255,4.476,7.841,7.023,13.089,8.368a29.576,29.576,0,0,0,22.8-2.823,45.054,45.054,0,0,0,4.681-3.6c.208-.159.585-.325.777-.242C144.176,40.649,148.074,42.378,152.026,44.122Z" fill="#00549d"/><path d="M202.405,17.97h1.811c-.1-.615-.186-1.189-.292-1.864a4.232,4.232,0,0,1-1.916.963,4.824,4.824,0,0,1,1.461-2.407c.293-.273,2.054.256,2.364.619l-.613.422.841.422c.175-1.117.914-1.166,1.739-1.066.535.065.981-.008.883-.77a3.723,3.723,0,0,1,.99.021c.222.066.387.321.627.536.409-1.668.941-1.927,2.639-1.482.582.153,1.2.167,1.791.287.332.067.638.26.97.325.239.046.616.073.732-.062a.853.853,0,0,1,1.427-.1,1.489,1.489,0,0,0,.7.43c.823.167,1.678.2,2.484.424a3.532,3.532,0,0,1,1.088.784,4.911,4.911,0,0,1,.53.53c.36.395,1.114.5.747,1.4-.153.378.239.978.384,1.477l-.3.16a5.553,5.553,0,0,1-.745-1.222c-.264-.876-.569-1-1.275-.459-.216.164-.614.086-.989.126-.151.353-.159.587.23,1.008a3.671,3.671,0,0,1,.785,1.956c.082.648-.339,1.324.023,2.019.063.122-.2.413-.307.625-.128-.189-.356-.375-.363-.569-.023-.657-.343-.77-.867-.611.268,1,.527,1.991.8,2.978a1.7,1.7,0,0,1-1.066,1.959c-.2.037-.449-.138-.889-.29a3.879,3.879,0,0,0,.33,1.344c.388.506.362.879-.145,1.413l-.625-.967-.133.97-2.158-3.13-1.823,3.362c-.158-.285-.32-.546-.452-.821-.443-.92-.825-1.874-1.335-2.755a2.566,2.566,0,0,0-1.031-.78c-.662-.354-1.357-.646-2.084-.986.216.477.071,1.2,1.084,1.178.257,0,.578.544.76.895.075.142-.088.483-.236.654-.647.747-1.283,1.545-2.476,1.257.172.8.172.8,1.33.367.539.446.189.947.053,1.423a.678.678,0,0,1-.248.309,3.7,3.7,0,0,0-1.29,3.834,1.254,1.254,0,0,1-.56,1.311,1.125,1.125,0,0,0-.468,1.24,3.387,3.387,0,0,1-2.039,3.048c-.516.112-.864.047-.984-.563a14.707,14.707,0,0,0-.463-1.611c-.072-.227-.125-.524-.291-.644-1.027-.74-.8-1.774-.515-2.678.413-1.292-.156-2.414-.366-3.595-.083-.469-1.149-.756-1.656-.539a1.958,1.958,0,0,1-2.291-.778c-.5-1.07-.932-2.171-1.441-3.369.92-.247,1.1-.975,1.525-1.465.683-.788,1.318-1.908,2.681-1.847a7.32,7.32,0,0,1,1.7-.06c.47.148.821.674,1.256,1.062h2.135c.419-.648.079-1.037-.559-1.291.074-.969,1.107-.833,1.525-1.395a.963.963,0,0,0-1.133-.858.876.876,0,0,0-.6.423c-.4.907-.848.988-1.485.237a3.5,3.5,0,0,0-.654-.445l.364,1.354-.2.122c-.381-.762-.912-1.213-1.714-.72-.617.379-1.17.863-1.869,1.388-.093-.161-.349-.4-.323-.593.083-.619-.11-1.513,1.061-1.226-.342-1.264-.29-1.321.9-1.9C202.108,18.613,202.207,18.272,202.405,17.97Zm5.532,9.371.42-.16L207.2,24.276l-.4.157Z" fill="#2eb458"/><path d="M185.533,26.344l.966-.5.114,1.041,1,1.45-.128.3c.751-.079,1.5-.159,2.252-.235a2.421,2.421,0,0,1,.4-.014A4.478,4.478,0,0,1,192.86,30.5a1.246,1.246,0,0,0,.565.654,4.36,4.36,0,0,1,2.244,1.672c-.5,1.212-.953,2.314-1.411,3.415-.049.119-.093.273-.189.333a2.4,2.4,0,0,0-.943,1.774c0,.026-.028.051-.026.075.061.807-.981.613-1.089,1.14-.117.57-.067,1.076-.86,1.172-.411.05-.659,1.288-.339,1.667.543.643.022,1.113-.312,1.441-.356.35-.6-.04-.638-.441q-.24-2.367-.464-4.735a3.822,3.822,0,0,1-.025-.8,3.3,3.3,0,0,0-1.558-3.35c-.554-.4-.62-1.657-.648-2.533-.015-.5.458-1.036.78-1.509.383-.563.314-.878-.345-1.118-.123-.045-.31-.052-.36-.138-.752-1.3-2.4-1.567-3.213-2.749a7.6,7.6,0,0,1-.671-1.819,1.462,1.462,0,0,0-.418-.722v1.448a4.987,4.987,0,0,1-1.411-2.708,24.093,24.093,0,0,1,.05-3.038c.013-.282.174-.555.212-.839a4.535,4.535,0,0,0,.092-1.427.916.916,0,0,1,.342-1.092,10.645,10.645,0,0,0,1.242-1.1,2.342,2.342,0,0,1,2.38-.688,10.214,10.214,0,0,0,1.979.247,8.048,8.048,0,0,0,1.393-.188l.032-.253.643.607c-.456.948-1.67,1.283-1.719,2.377l1.374.863c.121-.3.266-.7.451-1.088.168-.352.38-.684.559-1l1.325.7,1.061,1.506c-.231,1.321-1.5.388-2.225.791-.059.359-.059.359,1.167,1.135l-1.306.544.056.052a10.242,10.242,0,0,0-.867.613,1.92,1.92,0,0,0-.431.57c-.177.347-.223.928-.481,1.036-.955.4-.824,1.122-.616,2.148-.372-.248-.665-.337-.7-.484-.191-.871-1-.8-1.568-.954-.2-.053-.809.582-.84.938A5.5,5.5,0,0,0,185.533,26.344Z" fill="#2eb458"/><path d="M221.448,35.988l.715-.835c.245.733.472,1.424.706,2.112.576,1.693-1.228,3.984-2.908,3.69a1.51,1.51,0,0,0-2.431-1.15.973.973,0,0,1-.811-.006.885.885,0,0,1-.325-.686,3.229,3.229,0,0,1,1.4-2.8c.868-.572,1.742-1.138,2.652-1.636.129-.071.541.209.709.418A2.9,2.9,0,0,1,221.448,35.988Z" fill="#2eb458"/><path d="M197.946,12.258c.56.016.876-.909,1.724-.106-.518.43-1.044.835-1.53,1.284a1.26,1.26,0,0,0-.4.662c-.115.744-.543.9-1.226.891a1.453,1.453,0,0,0-.877.481c-.443.44-.818.948-1.224,1.432a2.63,2.63,0,0,1-.562-2.25c.376-.969.254-1.164-.788-1.306a1.493,1.493,0,0,1-.4-.2,2.573,2.573,0,0,1,2.593-1.285,5.751,5.751,0,0,0,1.51-.325C197.355,11.439,197.887,11.5,197.946,12.258Z" fill="#2eb458"/><path d="M222.914,32.027c.422.1.959.065,1.151.3.514.645,1.572.9,1.492,1.936C223.855,34.631,223.4,33.4,222.914,32.027Z" fill="#2eb458"/><path d="M209.989,34.321a13.65,13.65,0,0,1-.321,1.447,8.157,8.157,0,0,1-.648,1.458c-.111.2-.387.3-.588.446-.062-.291-.26-.642-.163-.862.395-.885.881-1.73,1.333-2.59Z" fill="#2eb458"/><path d="M190.554,13.911c.929-.307,1.589,0,2.277,1.27l-1.553.337Z" fill="#2eb458"/><path d="M220.405,32.39c-1.054-.5-1.132-.97-.354-1.724a5.347,5.347,0,0,0,.525-.7C221.273,30.9,221.25,31.232,220.405,32.39Z" fill="#2eb458"/><path d="M192.925,12.115c-.606,1.223-1.705.892-2.808.983A2.543,2.543,0,0,1,192.925,12.115Z" fill="#2eb458"/><path d="M220.527,42.575a9.2,9.2,0,0,1,1.537-1.378,3.854,3.854,0,0,0,1.3-1.463c.047.2.2.5.125.576-.83.818-1.693,1.6-2.556,2.387-.059.054-.183.037-.278.053Z" fill="#2eb458"/><path d="M219.023,32.817c-.631-.069-1.159-.88-1.617-2.481A2.98,2.98,0,0,1,219.023,32.817Z" fill="#2eb458"/><path d="M200.337,17.655l.048-.692c.29.042,1.022,1.071.888,1.34-.145.292-.477.49-.71.713l-.635-1.046.422-.328c.02.083.04.166.008.033Z" fill="#2eb458"/><path d="M223.012,21.277c.123.577.368,1.059.259,1.44-.084.3-.612.463-1.017.522Z" fill="#2eb458"/><path d="M220.909,33.708l-1.76-.366.059-.3,1.769.328Z" fill="#2eb458"/><path d="M221.866,27.476l-.088,1.67C221.1,28.294,221.107,27.7,221.866,27.476Z" fill="#2eb458"/><path d="M189.148,25.723c-.828.8-.946.066-1.154-.441Z" fill="#2eb458"/><path d="M187.084,13.665h1.232l.087.207a3.009,3.009,0,0,1-.854.355c-.177.018-.38-.227-.571-.354Z" fill="#2eb458"/><rect x="178.074" y="7.617" width="1.694" height="42.132" fill="#00549d"/><rect x="185.986" y="7.617" width="1.694" height="42.132" fill="#00549d"/><rect x="193.898" y="7.617" width="1.694" height="42.132" fill="#00549d"/><rect x="201.81" y="7.617" width="1.694" height="42.132" fill="#00549d"/><rect x="209.722" y="7.617" width="1.694" height="42.132" fill="#00549d"/><rect x="217.633" y="7.617" width="1.694" height="42.132" fill="#00549d"/><rect x="225.545" y="6.9" width="1.694" height="42.132" fill="#00549d"/><rect x="186.959" y="29.219" width="7.669" height="5.836" fill="#00549d"/><path d="M191.693,33.547l-.588-1.394a.735.735,0,1,0-.624,0l-.588,1.394Z" fill="#fff"/></g></g></svg>