<svg xmlns="http://www.w3.org/2000/svg" viewBox="0 0 256.418 61.074">
  <defs>
    <filter id="Keyhole" width="19.918" height="20.977" x="196.31" y="26.765" filterUnits="userSpaceOnUse">
      <feOffset dx="3" dy="3"/>
      <feGaussianBlur result="blur" stdDeviation="3"/>
      <feFlood flood-opacity=".161"/>
      <feComposite in2="blur" operator="in"/>
      <feComposite in="SourceGraphic"/>
    </filter>
  </defs>
  <g id="Group_1" data-name="Group 1" transform="translate(.002 .002)">
    <g id="Americas">
      <path id="Path_5" d="M185.8 27.132l1.029-.533.121 1.109 1.065 1.545-.136.32c.8-.084 1.6-.169 2.4-.25a2.579 2.579 0 0 1 .426-.015 4.771 4.771 0 0 1 2.9 2.252 1.328 1.328 0 0 0 .6.7 4.645 4.645 0 0 1 2.391 1.781c-.533 1.291-1.015 2.465-1.5 3.638-.052.127-.1.291-.2.355a2.557 2.557 0 0 0-1 1.89c0 .028-.03.054-.028.08.065.86-1.045.653-1.16 1.215-.125.607-.071 1.146-.916 1.249-.438.053-.7 1.372-.361 1.776.578.685.023 1.186-.332 1.535-.379.373-.639-.043-.68-.47q-.256-2.522-.494-5.045a4.072 4.072 0 0 1-.027-.852 3.516 3.516 0 0 0-1.66-3.569c-.59-.426-.661-1.765-.69-2.7-.016-.533.488-1.1.831-1.608.408-.6.335-.935-.368-1.191-.131-.048-.33-.055-.384-.147-.8-1.385-2.557-1.669-3.423-2.929a8.1 8.1 0 0 1-.715-1.938 1.557 1.557 0 0 0-.445-.769V26.1a5.313 5.313 0 0 1-1.5-2.885 25.673 25.673 0 0 1 .053-3.237c.014-.3.185-.591.226-.894a4.831 4.831 0 0 0 .1-1.52.976.976 0 0 1 .364-1.163 11.34 11.34 0 0 0 1.323-1.172 2.5 2.5 0 0 1 2.536-.733 10.882 10.882 0 0 0 2.108.263 8.574 8.574 0 0 0 1.484-.2l.034-.27.685.647c-.486 1.01-1.779 1.367-1.831 2.532l1.464.919c.129-.32.283-.746.48-1.159.179-.375.4-.729.6-1.065l1.412.746 1.13 1.6c-.246 1.407-1.6.413-2.37.843-.063.382-.063.382 1.243 1.209l-1.391.58.06.055a10.914 10.914 0 0 0-.924.653 2.046 2.046 0 0 0-.459.607c-.189.37-.238.989-.512 1.1-1.017.426-.878 1.2-.656 2.288-.4-.264-.708-.359-.746-.516-.2-.928-1.065-.852-1.671-1.016-.213-.056-.862.62-.895 1a5.859 5.859 0 0 0 .425 1.81z" class="cls-1" data-name="Path 5" transform="translate(11.866 .934)"/>
      <path id="Path_7" d="M198.291 12.308c.6.017.933-.968 1.837-.113-.552.458-1.112.89-1.63 1.368a1.342 1.342 0 0 0-.426.705c-.123.793-.579.959-1.306.949a1.548 1.548 0 0 0-.934.512c-.472.469-.871 1.01-1.3 1.526a2.8 2.8 0 0 1-.6-2.4c.4-1.032.271-1.24-.84-1.391a1.59 1.59 0 0 1-.426-.213 2.741 2.741 0 0 1 2.763-1.369 6.127 6.127 0 0 0 1.609-.346c.624-.101 1.191-.036 1.253.772z" class="cls-1" data-name="Path 7" transform="translate(12.596 .752)"/>
      <path id="Path_10" d="M190.554 13.918c.99-.327 1.693 0 2.426 1.353l-1.655.359z" class="cls-1" data-name="Path 10" transform="translate(12.458 .902)"/>
      <path id="Path_12" d="M193.109 12.122c-.646 1.3-1.816.95-2.992 1.047a2.709 2.709 0 0 1 2.992-1.047z" class="cls-1" data-name="Path 12" transform="translate(12.429 .785)"/>
      <path id="Cuba" d="M189.223 25.752c-.882.852-1.008.07-1.229-.47z" class="cls-1" transform="translate(12.291 1.653)"/>
      <path id="North_Place" d="M187.091 13.665h1.309l.093.221a3.206 3.206 0 0 1-.91.378c-.189.019-.4-.242-.608-.377z" class="cls-1" data-name="North Place" transform="translate(12.224 .893)"/>
    </g>
    <g id="Other_Continent" data-name="Other Continent">
      <path id="Europe_and_Africa" d="M202.74 18.284h1.929c-.107-.655-.2-1.267-.311-1.986a4.509 4.509 0 0 1-2.041 1.026 5.139 5.139 0 0 1 1.557-2.564c.312-.291 2.188.273 2.519.659l-.653.45.9.45c.186-1.19.974-1.242 1.853-1.136.57.069 1.045-.009.941-.82a3.967 3.967 0 0 1 1.055.022c.237.07.412.342.668.571.436-1.777 1-2.053 2.812-1.579.62.163 1.278.178 1.908.306.354.071.68.277 1.033.346.255.049.656.078.78-.066a.909.909 0 0 1 1.52-.107 1.587 1.587 0 0 0 .746.458c.877.178 1.788.213 2.646.452a3.763 3.763 0 0 1 1.159.835 5.23 5.23 0 0 1 .565.565c.384.421 1.187.533.8 1.492-.163.4.255 1.042.409 1.574l-.32.17a5.915 5.915 0 0 1-.794-1.3c-.281-.933-.606-1.065-1.358-.489-.23.175-.654.092-1.054.134-.161.376-.169.625.245 1.074a3.911 3.911 0 0 1 .836 2.084c.087.69-.361 1.411.025 2.151.067.13-.213.44-.327.666-.136-.2-.379-.4-.387-.606-.024-.7-.365-.82-.924-.651.286 1.065.561 2.121.852 3.173a1.811 1.811 0 0 1-1.136 2.087c-.213.039-.478-.147-.947-.309a4.132 4.132 0 0 0 .352 1.432c.413.539.386.936-.155 1.505l-.666-1.03-.142 1.033-2.3-3.335-1.949 3.579c-.168-.3-.341-.582-.482-.875-.472-.98-.879-2-1.422-2.935a2.734 2.734 0 0 0-1.1-.831c-.705-.377-1.446-.688-2.22-1.05.23.508.076 1.278 1.155 1.255.274 0 .616.58.81.954.08.151-.094.515-.251.7-.689.8-1.367 1.646-2.638 1.339.183.852.183.852 1.417.391.574.475.2 1.009.056 1.516a.722.722 0 0 1-.264.329 3.942 3.942 0 0 0-1.374 4.085 1.336 1.336 0 0 1-.6 1.4 1.2 1.2 0 0 0-.5 1.321 3.608 3.608 0 0 1-2.172 3.247c-.55.119-.92.05-1.048-.6a15.664 15.664 0 0 0-.493-1.716c-.077-.242-.133-.558-.31-.686-1.094-.788-.852-1.89-.549-2.853.44-1.376-.166-2.572-.39-3.83-.088-.5-1.224-.805-1.764-.574a2.086 2.086 0 0 1-2.441-.829c-.533-1.14-.993-2.313-1.535-3.589.98-.263 1.172-1.039 1.625-1.561.728-.84 1.4-2.033 2.856-1.968a7.8 7.8 0 0 1 1.811-.064c.5.158.875.718 1.338 1.131h2.275c.446-.69.084-1.1-.6-1.375.079-1.032 1.179-.887 1.625-1.486a1.026 1.026 0 0 0-1.201-.921.933.933 0 0 0-.639.451c-.426.966-.9 1.053-1.582.252a3.728 3.728 0 0 0-.7-.474l.388 1.443-.213.13c-.406-.812-.972-1.292-1.826-.767-.657.4-1.246.919-1.991 1.479-.1-.172-.372-.426-.344-.632.088-.659-.117-1.612 1.13-1.306-.364-1.347-.309-1.407.959-2.024.242-.108.347-.472.558-.793zm5.894 9.984l.447-.17L207.849 25l-.426.167z" class="cls-1" data-name="Europe and Africa" transform="translate(12.897 .861)"/>
      <path id="Madagascar" d="M210.1 34.328a14.537 14.537 0 0 1-.342 1.542 8.691 8.691 0 0 1-.69 1.553c-.118.213-.412.32-.626.475-.066-.31-.277-.684-.174-.918.421-.943.939-1.843 1.42-2.759z" class="cls-1" transform="translate(13.614 2.237)"/>
      <path id="Britian" d="M200.364 17.7l.051-.737c.309.045 1.089 1.141.946 1.428-.154.311-.508.522-.756.76l-.677-1.114.45-.349c.021.088.043.177.009.035z" class="cls-1" transform="translate(13.071 1.109)"/>
    </g>
    <g id="Bars">
      <path id="Rectangle_1" d="M0 0h1.805v44.886H0z" class="cls-1" data-name="Rectangle 1" transform="translate(189.716 8.115)"/>
      <path id="Rectangle_2" d="M0 0h1.805v44.886H0z" class="cls-1" data-name="Rectangle 2" transform="translate(198.145 8.115)"/>
      <path id="Rectangle_3" d="M0 0h1.805v44.886H0z" class="cls-1" data-name="Rectangle 3" transform="translate(206.575 8.115)"/>
      <path id="Rectangle_4" d="M0 0h1.805v44.886H0z" class="cls-1" data-name="Rectangle 4" transform="translate(215.004 8.115)"/>
      <path id="Rectangle_5" d="M0 0h1.805v44.886H0z" class="cls-1" data-name="Rectangle 5" transform="translate(223.433 8.115)"/>
      <path id="Rectangle_6" d="M0 0h1.805v44.886H0z" class="cls-1" data-name="Rectangle 6" transform="translate(231.861 8.115)"/>
      <path id="Rectangle_7" d="M0 0h1.805v44.886H0z" class="cls-1" data-name="Rectangle 7" transform="translate(240.291 7.351)"/>
    </g>
    <g id="Southern_Pacific" data-name="Southern Pacific">
      <path id="Path_6" d="M221.779 36.074l.762-.89c.261.781.5 1.517.752 2.25.614 1.8-1.308 4.244-3.1 3.931a1.609 1.609 0 0 0-2.59-1.225 1.037 1.037 0 0 1-.864-.006.943.943 0 0 1-.346-.731 3.44 3.44 0 0 1 1.492-2.983c.925-.609 1.856-1.212 2.825-1.743.137-.076.576.223.755.445a3.091 3.091 0 0 1 .314.952z" class="cls-1" data-name="Path 6" transform="translate(14.147 2.266)"/>
      <path id="Path_8" d="M222.914 32.027c.45.107 1.022.069 1.226.32.548.687 1.675.959 1.59 2.063-1.813.39-2.298-.92-2.816-2.383z" class="cls-1" data-name="Path 8" transform="translate(14.574 2.094)"/>
      <path id="Path_11" d="M220.462 32.548c-1.123-.533-1.206-1.033-.377-1.837a5.7 5.7 0 0 0 .559-.746c.743.996.718 1.35-.182 2.583z" class="cls-1" data-name="Path 11" transform="translate(14.352 1.959)"/>
      <path id="Path_13" d="M220.527 42.761a9.8 9.8 0 0 1 1.637-1.468 4.106 4.106 0 0 0 1.385-1.559c.05.213.213.533.133.614-.884.871-1.8 1.7-2.723 2.543-.063.058-.195.039-.3.056z" class="cls-1" data-name="Path 13" transform="translate(14.417 2.598)"/>
      <path id="Path_16" d="M223.062 21.277c.131.615.392 1.128.276 1.534-.089.32-.652.493-1.083.556z" class="cls-1" data-name="Path 16" transform="translate(14.53 1.391)"/>
      <path id="Path_17" d="M221.024 33.752l-1.875-.39.063-.32 1.885.349z" class="cls-1" data-name="Path 17" transform="translate(14.327 2.16)"/>
      <path id="Path_18" d="M221.9 27.476l-.094 1.779c-.718-.908-.706-1.54.094-1.779z" class="cls-1" data-name="Path 18" transform="translate(14.467 1.796)"/>
    </g>
        <g id="Lock">
      <path style="opacity:0" id="Lock-2" d="M0 0h8.17v6.218H0z" class="cls-1" data-name="Lock" transform="translate(199.182 31.129)"/>
      <g filter="url(#Keyhole)">
        <path id="Keyhole-2" fill="#fb4909" d="M191.811 33.73l-.626-1.485a.783.783 0 1 0-.665 0l-.626 1.485z" data-name="Keyhole" transform="translate(12.42 2.01)"/>
      </g>
    </g>
    <g id="logo">
      <path id="O" d="M245.664 32.061c-.144.914-.263 1.832-.434 2.74a26.11 26.11 0 0 1-6.872 13.193A40.265 40.265 0 0 1 220.21 58.86a51.689 51.689 0 0 1-12.381 2.111 51.126 51.126 0 0 1-21.86-3.468 37.623 37.623 0 0 1-15.235-10.623 24.535 24.535 0 0 1-6.22-17.9 24.29 24.29 0 0 1 5.308-13.522C174.6 9.3 180.936 5.4 188.2 2.874A50.061 50.061 0 0 1 206.471.142c10.168.348 19.616 3.028 27.786 9.335 5.327 4.109 9.2 9.254 10.754 15.931.23.99.3 2.016.462 3.024a6.892 6.892 0 0 0 .191.72zm-40.859 20.384a38.411 38.411 0 0 0 12.972-2.259 27.03 27.03 0 0 0 12.238-8.525 16.994 16.994 0 0 0 3.694-14.288 19.52 19.52 0 0 0-7.11-11.332 32.306 32.306 0 0 0-17.715-7.058 36.59 36.59 0 0 0-14.5 1.345 27.669 27.669 0 0 0-14.323 9.215c-3.744 4.74-5.039 10.07-3.29 15.939a20.317 20.317 0 0 0 7.707 10.466c6.105 4.589 13.111 6.33 20.327 6.497z" class="cls-1" transform="translate(10.752 .007)"/>
      <path id="G" d="M74.617 13.869l-8.968 4c-1.22.544-2.43 1.113-3.667 1.617a.966.966 0 0 1-.852-.115A26.7 26.7 0 0 0 45 11.781c-7.661-.975-14.915.3-21.414 4.693a17.588 17.588 0 0 0-7.763 10.532 14.562 14.562 0 0 0 2.549 12.365 23.4 23.4 0 0 0 11.641 8.262 30.738 30.738 0 0 0 12.585 1.7c7.063-.5 13.451-2.731 18.538-7.909a15.471 15.471 0 0 0 3.6-5.584H26.082v-8.487h54.987c.016 1.675.165 3.346.022 4.992a24.882 24.882 0 0 1-4.9 12.716 34.2 34.2 0 0 1-9.077 8.427 45.732 45.732 0 0 1-17.714 6.7 52.234 52.234 0 0 1-13.94.464 51.391 51.391 0 0 1-13.62-3.184 39.575 39.575 0 0 1-13.284-8.332 27.133 27.133 0 0 1-7.6-12.143A23.176 23.176 0 0 1 2.77 19.4c3.213-6.191 8.24-10.523 14.268-13.783A43.2 43.2 0 0 1 32.175.673a67.139 67.139 0 0 1 9.767-.649 47.336 47.336 0 0 1 25.32 7.448 36.755 36.755 0 0 1 6.847 5.753c.173.188.317.401.508.644z" class="cls-1" transform="translate(0 .002)"/>
      <path id="E" d="M156.606 47.007a36.7 36.7 0 0 1-11.457 8.736 48.532 48.532 0 0 1-15.572 4.688 51.617 51.617 0 0 1-13.1.135c-9.527-1.158-18.209-4.368-25.408-10.927a26.5 26.5 0 0 1-8.61-14.573 23.431 23.431 0 0 1 3.8-18.263C90.53 10.441 96.571 6.332 103.578 3.5A46.925 46.925 0 0 1 114.816.513a56.777 56.777 0 0 1 10.461-.444 50.853 50.853 0 0 1 14.973 2.95 43.029 43.029 0 0 1 10.024 5.2 30.847 30.847 0 0 1 10.462 11.892A22.3 22.3 0 0 1 163 32.349c-.1.959-.258 1.91-.366 2.868-.056.492-.281.652-.786.652q-26.41-.016-52.82-.005h-1.45v-8.571h40.305c-.469-1.269-.776-2.369-1.265-3.382a20.287 20.287 0 0 0-8.55-8.783 30.434 30.434 0 0 0-12.358-3.8 32.2 32.2 0 0 0-14.822 1.924c-5.133 1.963-9.5 4.977-12.145 9.94-3.051 5.719-2.509 11.293 1.278 16.5 3.468 4.769 8.354 7.482 13.945 8.915a31.51 31.51 0 0 0 24.295-3.007 48 48 0 0 0 4.987-3.835c.222-.169.623-.346.828-.258 4.167 1.8 8.324 3.642 12.53 5.5z" class="cls-1" transform="translate(5.359)"/>
      <path id="Behind_Bar_Country" d="M219.129 32.979c-.672-.074-1.235-.938-1.723-2.643a3.175 3.175 0 0 1 1.723 2.643z" class="cls-1" data-name="Behind Bar Country" transform="translate(14.213 1.983)"/>
    </g>
  </g>
</svg>
