<svg xmlns="http://www.w3.org/2000/svg" viewBox="0 0 271.323 156.735">
  <defs>
    <style>
      .cls-1 {
        fill: none;
        stroke: #fff;
      }
    </style>
  </defs>
  <g id="cage" transform="translate(-7.808 160.164)">
    <g id="Group_188" data-name="Group 188">
      <g id="Group_3" data-name="Group 3" transform="translate(272.311 -137.359)">
        <path id="Path_65" data-name="Path 65" class="cls-1" d="M0,0A10.19,10.19,0,0,0,3.815-2.684L3.367-3.2.016.017C-2.1,1.886-4.208,3.754-6.4,5.7c1.236,1.489,2.362,2.852,3.5,4.2.148.176.367.449.529.433,2.068-.2,3.1,1.345,4.439,2.457a3.752,3.752,0,0,0,2.645.945c.473-.086.946-1.525.988-2.378.2-4.021.258-8.05.348-12.078.013-.555-.077-1.113-.124-1.739C4.267-1.315,2.784-.264,1.271.745.406,1.322-.06,1.073,0,0"/>
      </g>
      <g id="Group_4" data-name="Group 4" transform="translate(16.414 -65.443)">
        <path id="Path_66" data-name="Path 66" class="cls-1" d="M0,0-3.287,1.763c1.5.732,1.914.478,3.264-1.784q3.706-4.029,7.4-8.041c-2.169-2.372-4.17-4.623-6.256-6.792a3.067,3.067,0,0,0-1.777-.834,3.766,3.766,0,0,1-3.524-3.936c.119-1.534,1.979-2.516,4.09-2.1a5.527,5.527,0,0,1,1.263.577q3.31-3.213,6.478-6.291a2.075,2.075,0,0,0-.215-.472,46.449,46.449,0,0,0-10.573-7.9c-.97-.529-1.324-1.153-.855-2.143.546-1.155,2.722-1.864,4.305-1.279l-1.818,1.273c1.613-.163,6.3-5.465,7.977-8.828-4.37-2.782-7.9-6.994-13.637-8.149,0,1.144,0,2.021,0,2.9q.057,34.517.148,69.033a10.689,10.689,0,0,0,.78,2.8c1.885-1.037,3.384-1.86,4.881-2.685l.458.672L-4.02,20.116l.457.5c3.443-2.547,6.1-5.951,9.707-9.276a7.518,7.518,0,0,1-1.7-1.057C2.483,8.018-.141,6.921-2.814,5.817c-1.812-.747-2.568-2.3-2.108-3.63C-4.509.989-1.644-.891-.489-.66c.2.04.327.431.489.66"/>
      </g>
      <g id="Group_5" data-name="Group 5" transform="translate(101.463 -77.893)">
        <path id="Path_67" data-name="Path 67" class="cls-1" d="M0,0A8.194,8.194,0,0,1,.888-2.151c1.167-1.458,2.484-2.8,3.748-4.188C2.495-8.649.527-10.778-1.448-12.9q-.545-.586-1.13-1.134c-1.29-1.2-3.463-1.434-4.418-.349-2.461,2.8-4.852,5.652-7.327,8.55l3.687,3.984c-.187.183-.374.366-.561.547-1.042-1.036-2.064-2.093-3.13-3.1a3.135,3.135,0,0,0-4.665.17C-20.839-2.15-22.736-.1-24.417,2.119c-1.831,2.412-4.555,2.12-7.347,3.032.6-.841.922-1.3,1.483-2.089C-32.828.63-35.335-1.8-37.888-4.185a3.059,3.059,0,0,0-4.127.039C-44.534-1.324-47,1.548-48.923,3.76l5.042,6.928c-.386.405-1.036-.094-1.717-.809-1.349-1.416-2.7-2.833-4.124-4.174-1.125-1.061-3.152-1.224-3.976-.291-2.623,2.965-5.179,5.991-7.911,9.169,2.464,2.483,4.788,5.008,7.32,7.3a3.458,3.458,0,0,0,4.937-.476c1.7-1.9,3.3-3.887,4.953-5.821a14.457,14.457,0,0,1,1.112-1.057l.42.384a12.354,12.354,0,0,1-.892,1.382c-1.835,2.173-3.731,4.3-5.517,6.508-.328.4-.543,1.423-.3,1.682,2.1,2.254,4.28,4.438,6.514,6.56a3.473,3.473,0,0,0,4.249.016c2.632-2.786,5.167-5.664,7.827-8.6-2.481-2.58-4.838-4.989-7.132-7.456-.4-.435-.9-1.271-.736-1.65a2.358,2.358,0,0,1,2.622-1.678l-1.776,2.073c2.462,2.58,4.832,5.14,7.294,7.606,1,1,3.515,1.16,4.284.318,2.549-2.792,5.035-5.643,7.611-8.545l-4.4-4.839.549-.54q1.615,1.62,3.232,3.24c2.089,2.088,3.847,2.044,5.8-.171,1.1-1.245,2.188-2.5,3.235-3.786C-9.167,5.51-7.978,3.946-6.672,2.278c2.63.395,2.615.376,5.1-1.592A6.869,6.869,0,0,1,.021-.021C-.888,1.171-1.8,2.363-2.771,3.643-.25,6.289,2.11,9.032,4.792,11.413c.751.666,2.99.844,3.618.255,2.776-2.6,5.213-5.563,7.814-8.439C13.755.594,11.492-1.9,9.142-4.306c-1.675-1.715-3.546-1.618-5.149.1C2.672-2.8,1.332-1.4,0,0"/>
      </g>
      <g id="Group_7" data-name="Group 7" transform="translate(146.523 -18.239)">
        <path id="Path_69" data-name="Path 69" class="cls-1" d="M0,0C-.086-.211-.173-.423-.259-.635,2.1-3.156,4.461-5.678,6.889-8.27c-2.043-2.219-4-4.356-5.972-6.481-.523-.564-1.062-1.122-1.638-1.632a3.14,3.14,0,0,0-4.547.1q-3.273,3.513-6.4,7.157a1.535,1.535,0,0,0-.081,1.47q2.733,3.276,5.663,6.387a1.95,1.95,0,0,0,1.524.3c1.291-.227,2.555-.6,3.83-.922.086.328.173.655.26.984L-4.36.174c.2.645.4,1.29.541,1.752A17.88,17.88,0,0,0-6.948,1.3c-4.686-.068-9.373-.1-14.058-.011a41.745,41.745,0,0,0-4.651.662A4.715,4.715,0,0,1-27.034,1.9,27.093,27.093,0,0,0-30.8,1.25q-6.849-.126-13.7-.011a39.16,39.16,0,0,0-4.319.621,4.826,4.826,0,0,1-1.383-.043,24.09,24.09,0,0,0-3.422-.6,137.707,137.707,0,0,0-14.935.129,48.165,48.165,0,0,1-8.092.009c-4.42-.3-8.885.081-13.331.147a18.539,18.539,0,0,1-2.107-.2c0-.257.007-.514.01-.771h15.95l-.006-.609c-.442-.042-.884-.121-1.327-.119-4.507.013-9.018-.08-13.517.121a37.824,37.824,0,0,0-6.006,1.25l1.183,1.641-.326.424c-.656-.394-1.292-.83-1.974-1.171a4.283,4.283,0,0,0-1.74-.615c-4.448-.008-8.9.06-13.344.1-1.879.019-3.81-.267-5.439,1.088a1.126,1.126,0,0,1-1,.192c-1.991-1.237-4.241-1.068-6.421-1.294-.036,0-.052-.2-.109-.444l2.5-.361c-.013-.059-.025-.119-.036-.178l-2.142-.292c0-.124,0-.247,0-.371l1.662-.482c-1.833-2.113-3.052-4.612-6.267-4.61-.659,0-1.393-.8-1.96-1.361a1.749,1.749,0,0,1,.311-3,14.164,14.164,0,0,1,3.237-1.084c.31-.094.752-.033.932-.228,1.512-1.645,2.977-3.331,4.6-5.166L-136.57-25.6c.085.35.189.781.293,1.212-1.821.261-.768,1.667-.864,2.481-.22,1.876,0,3.8-.184,5.682A22.607,22.607,0,0,0-114.966,9.047c5.1.092,10.2-.058,15.3-.086,1.243-.007,2.827-.425,3.628.178.722.544.64,2.217.819,3.408.252,1.673,1.506.927,2.373,1.009.9.085,1.436-.267,1.312-1.362a30.21,30.21,0,0,1-.026-3.288c1.062-.056,2-.147,2.932-.149q21.708-.034,43.416-.051,20.284-.048,40.568-.179c1.023-.006,1.5.241,1.615,1.328.22,2.141.014,2.4-2.28,2.407q-41.808.129-83.617.274a13.993,13.993,0,0,0-1.767.224c0,.148-.008.3-.012.444a4.475,4.475,0,0,0,1.078.263c8.479-.067,16.959-.19,25.439-.227,11.017-.047,22.034-.031,33.05-.036,6.816,0,13.631-.041,20.446.03,3.35.037,6.7.391,10.048.4,1.946,0,3.892-.572,5.839-.582,5.917-.028,11.836.119,17.754.151q15.472.083,30.944.108c3.666.009,7.331,0,11,0l0-.448c-2.048,0-4.1.033-6.146-.005-9.186-.166-18.373-.413-27.562-.513q-14.316-.158-28.636-.066C.53,12.288.8,10.964.673,9.8.515,8.313,1.655,8.6,2.485,8.6q25.62.091,51.242.214c10.973.057,21.946.171,32.919.221,3.924.019,3.564-.013,3.7,3.4.041,1,.207,1.856,1.569,1.875,1.322.018,1.968-.353,1.928-1.81-.078-2.811-.024-5.624-.024-8.437,0,.959.248,1.95.2,2.925-.1,1.923.8,2.405,2.576,2.391,3.138-.025,6.279.185,9.42.268A24.975,24.975,0,0,0,120.607,5.9a46.239,46.239,0,0,0,3.882-3.11c-.1-.241-.2-.482-.3-.724-2.183.277-4.362.588-6.55.81a8.031,8.031,0,0,1-2.05-.188,13,13,0,0,0-1.873-.411c-6.732-.03-13.464-.018-20.2-.018-.067-.237-.133-.472-.2-.707a5.724,5.724,0,0,1,1.735-.58c5.454.04,10.907.148,16.361.224.585.009,1.172-.064,1.757-.1-.014-.19-.026-.378-.04-.567H89.706c-.043.425-.1.987-.114,1.133H70.724c-2.228,1.739-4.41.191-6.658.058A116.836,116.836,0,0,0,47.712,1.7a47.656,47.656,0,0,1-7.9-.089c-4.658-.377-9.363-.2-14.047-.2a11.168,11.168,0,0,0-3.813.407c-1.175.439-2.1.619-3.141-.146a2.077,2.077,0,0,0-1.162-.3c-5.091.007-10.184.044-15.276.059-.731,0-1.462-.068-2.193-.1C.184,1.118.187.9.192.684H17.138L17.132,0Z"/>
      </g>
      <g id="Group_8" data-name="Group 8" transform="translate(270.13 -48.791)">
        <path id="Path_70" data-name="Path 70" class="cls-1" d="M0,0A8.289,8.289,0,0,1,2.379.318c.988.517,1.836,1.3,2.787,1.891.408.255,1.052.571,1.367.415.336-.168.459-.848.586-1.327A4.33,4.33,0,0,0,7.146.233q0-34.6,0-69.212c0-.738-.078-1.476-.121-2.229-.34.042-.495.013-.557.075-1.858,1.859-3.916,3.195-6.725,2.725-.173-.029-.43.186-.585.347-1.508,1.568-3,3.149-4.872,5.117,2.038,1.5,3.917,2.942,5.864,4.287.97.671,2.12,1.079,3.085,1.756a2.746,2.746,0,0,1,1.142,3.55,5.623,5.623,0,0,1-5.485,3.672c-.317-.014-.77-.055-.937.123-1.52,1.626-2.992,3.3-4.5,4.985l5,5.267a11.86,11.86,0,0,1,2.331.653,9.027,9.027,0,0,1,1.8,1.439c1.451,1.4,1.871,3.125,1.147,4.482a4.762,4.762,0,0,1-4.57,2.065,1.347,1.347,0,0,0-1.033.192c-1.616,1.782-3.178,3.612-4.745,5.416,1.928,2.184,3.681,4.188,5.468,6.161a1.174,1.174,0,0,0,.862.288,4.539,4.539,0,0,1,4.391,2.781c1.031,3.179-1.395,5.82-5.052,5.553A2.235,2.235,0,0,0-2.5-9.955c-1.285,1.287-2.449,2.7-3.629,4.027L0,0"/>
      </g>
      <g id="Group_11" data-name="Group 11" transform="translate(35.4 -122.687)">
        <path id="Path_73" data-name="Path 73" class="cls-1" d="M0,0C-2.672-2.971-5.226-5.846-7.835-8.669a1.916,1.916,0,0,0-1.451-.672,7.7,7.7,0,0,0-3.032,1.377C-15.131-5.448-17.847-2.819-20.5-.138c-.894.9-1.391,2.031.475,2.652a3.883,3.883,0,0,1,1.209,1c1.841,1.738,3.629,3.536,5.537,5.2A2.855,2.855,0,0,0-11.2,9.39,9.015,9.015,0,0,0-5.425,6.1C-3.8,4-1.9,2.113,0,0"/>
      </g>
      <g id="Group_12" data-name="Group 12" transform="translate(14.914 -61.996)">
        <path id="Path_74" data-name="Path 74" class="cls-1" d="M0,0C3.679,2.667,5.6,6.819,10.281,7.966c1.706.419,2.575.413,3.543-.877,2.129-2.839,4.3-5.646,6.389-8.514a1.409,1.409,0,0,0-.107-1.34C17.979-5.146,15.818-7.5,13.589-9.789c-1.126-1.155-3.938-1.217-4.923-.116C5.829-6.74,3.063-3.513,0,0"/>
      </g>
      <g id="Group_13" data-name="Group 13" transform="translate(254.078 -124.028)">
        <path id="Path_75" data-name="Path 75" class="cls-1" d="M0,0C-.474.757-.824,1.315-1.247,1.988c2.473,2.561,4.9,5.139,7.4,7.632,1,1,3.711,1.475,4.342.834,2.763-2.805,5.478-5.656,7.743-8.006A11.236,11.236,0,0,0,17.28.65c-1.914-2.328-3.805-4.68-5.834-6.907C9.214-8.708,7.07-8.719,4.821-6.408,2.843-4.374.921-2.284-1.021-.215a3.71,3.71,0,0,0-.321.5L0,0"/>
      </g>
      <g id="Group_14" data-name="Group 14" transform="translate(36.293 -83.288)">
        <path id="Path_76" data-name="Path 76" class="cls-1" d="M0,0C-2.417-2.777-4.623-5.319-6.839-7.854c-1.678-1.919-3.723-1.971-5.594-.124-2.229,2.2-4.472,4.393-6.616,6.677A1.814,1.814,0,0,0-19.21.437C-17,3.124-14.745,5.776-12.366,8.312-11.344,9.4-8.242,9.4-7.373,8.438-4.889,5.678-2.479,2.849,0,0"/>
      </g>
      <g id="Group_15" data-name="Group 15" transform="translate(253.346 -142.109)">
        <path id="Path_77" data-name="Path 77" class="cls-1" d="M0,0C3.95,2.779,5.988,7.227,10.579,8.866a2.119,2.119,0,0,0,2.513-.352C15.437,6.344,17.747,4.136,20.119,2A14.268,14.268,0,0,1,22.2.675,14.406,14.406,0,0,0,20.1-1.246c-.926-.795-1.792-1.659-2.713-2.463-1.717-1.5-3.441-2.99-5.2-4.438a1.158,1.158,0,0,0-1.008-.1A19.086,19.086,0,0,0,7.321-6.27C4.905-4.385,2.649-2.292,0,0"/>
      </g>
      <g id="Group_16" data-name="Group 16" transform="translate(227.846 -122.065)">
        <path id="Path_78" data-name="Path 78" class="cls-1" d="M0,0C3.025,2.758,5.685,5.2,8.373,7.62A3.43,3.43,0,0,0,13.148,7.4C15.181,5.243,17.121,3,19.232.924c.957-.941.929-1.683.145-2.545-2.232-2.451-4.421-4.95-6.772-7.285A3.689,3.689,0,0,0,7.256-8.6C4.982-5.991,2.789-3.314,0,0"/>
      </g>
      <g id="Group_17" data-name="Group 17" transform="translate(16.362 -101.845)">
        <path id="Path_79" data-name="Path 79" class="cls-1" d="M0,0C2.457,2.387,4.825,4.779,7.3,7.055c1.163,1.068,4.282.923,5.319-.2,2.408-2.6,4.736-5.27,7.146-7.967-2.454-2.646-4.8-5.215-7.194-7.742a3.706,3.706,0,0,0-5.964.266C4.444-5.856,2.356-3.068,0,0"/>
      </g>
      <g id="Group_18" data-name="Group 18" transform="translate(210.677 -17.614)">
        <path id="Path_80" data-name="Path 80" class="cls-1" d="M0,0C0-.167,0-.333,0-.5h-18.96c3.784-1.991,5.459-5.787,8.69-8.254C-12.975-11.62-15.479-14.369-18.1-17a3.451,3.451,0,0,0-4.471.061c-2.374,2.628-4.664,5.334-7.03,8.057,1.53,1.735,2.972,3.377,4.423,5.012,1.222,1.375,2.087,3.3,4.519,3.072l-1.016.435L-21.61,0Z"/>
      </g>
      <g id="Group_19" data-name="Group 19" transform="translate(34.563 -44.606)">
        <path id="Path_81" data-name="Path 81" class="cls-1" d="M0,0C-2.348-2.163-4.422-4.271-6.714-6.109a19.014,19.014,0,0,0-4.319-2.229,1.473,1.473,0,0,0-1.23.417C-15.116-5.03-17.927-2.1-20.76.834c.554.449.987.749,1.359,1.11,1.892,1.837,3.68,3.792,5.672,5.512,2.7,2.332,3.733,2.466,6.413.136C-4.706,5.32-2.48,2.608,0,0"/>
      </g>
      <g id="Group_20" data-name="Group 20" transform="translate(270.889 -83.889)">
        <path id="Path_82" data-name="Path 82" class="cls-1" d="M0,0C-2.478-2.687-4.866-5.391-7.389-7.963a3.728,3.728,0,0,0-4.927.124Q-15.7-4.315-18.947-.661A1.491,1.491,0,0,0-18.987.78q3.561,3.963,7.269,7.792a2.994,2.994,0,0,0,4.351-.155C-4.98,5.712-2.614,2.989,0,0"/>
      </g>
      <g id="Group_21" data-name="Group 21" transform="translate(85.601 -141.199)">
        <path id="Path_83" data-name="Path 83" class="cls-1" d="M0,0C2.748,2.769,5.425,5.522,8.175,8.2c.837.816,3.54.613,4.346-.272Q15.93,4.182,19.23.332c.23-.267.332-1.022.149-1.2-2.606-2.581-5.172-5.22-7.965-7.588-1.352-1.146-3.163-.655-4.376.677C4.766-5.288,2.511-2.778,0,0"/>
      </g>
      <g id="Group_22" data-name="Group 22" transform="translate(12.579 -141.774)">
        <path id="Path_84" data-name="Path 84" class="cls-1" d="M0,0C1.2,1.143,2.276,2.169,3.352,3.2,5.334,5.1,7.3,7.021,9.309,8.894a1.367,1.367,0,0,0,1.113.378,15.669,15.669,0,0,0,4.139-2.143c1.981-1.757,3.661-3.852,5.49-5.783a1.14,1.14,0,0,0-.087-1.924,24.485,24.485,0,0,1-4.235-4.015c-1.707-2.484-4.823-1.534-6.772-3.228-.113-.1-.668.164-.9.382C5.4-5.012,2.763-2.56,0,0"/>
      </g>
      <g id="Group_23" data-name="Group 23" transform="translate(204.1 -122.26)">
        <path id="Path_85" data-name="Path 85" class="cls-1" d="M0,0C2.946,2.711,5.518,5.067,8.076,7.437c1.359,1.257,3.352,1.546,4.395.459C15,5.259,17.456,2.548,20.139-.346c-2.819-2.925-5.422-5.909-8.369-8.5-.8-.7-2.705-1.482-3.98-.067C5.311-6.165,2.912-3.343,0,0"/>
      </g>
      <g id="Group_24" data-name="Group 24" transform="translate(27.979 -113.055)">
        <path id="Path_86" data-name="Path 86" class="cls-1" d="M0,0C2.7,2.88,5.224,5.614,7.8,8.3c1.015,1.058,3.428,1.349,4.332.413C14.7,6.054,17.152,3.285,19.644.566c-2.708-2.883-5.193-5.574-7.731-8.211C10.868-8.73,8.275-9.061,7.479-8.209,4.985-5.538,2.553-2.811,0,0"/>
      </g>
      <g id="Group_25" data-name="Group 25" transform="translate(239.359 -74.284)">
        <path id="Path_87" data-name="Path 87" class="cls-1" d="M0,0C2.748,2.927,5.324,5.778,8.031,8.5a2.622,2.622,0,0,0,3.672.3C14.445,6.129,16.955,3.222,19.64.32,17.086-2.426,14.66-5.1,12.156-7.7c-1.18-1.225-3.5-1.5-4.481-.487C5.075-5.522,2.576-2.761,0,0"/>
      </g>
      <g id="Group_26" data-name="Group 26" transform="translate(227.521 -64.702)">
        <path id="Path_88" data-name="Path 88" class="cls-1" d="M0,0C2.777,2.936,5.42,5.789,8.14,8.566a2.968,2.968,0,0,0,3.829-.186c2.345-2.418,4.666-4.862,6.926-7.36a1.489,1.489,0,0,0,.04-1.443c-2.331-2.592-4.7-5.15-7.151-7.633-1.013-1.026-3.438-1.083-4.349-.117C4.929-5.518,2.515-2.777,0,0"/>
      </g>
      <g id="Group_27" data-name="Group 27" transform="translate(204.683 -142.001)">
        <path id="Path_89" data-name="Path 89" class="cls-1" d="M0,0C2.689,2.762,5.183,5.538,7.937,8.022c.849.765,2.541,1.6,3.677.489C14.438,5.76,17.057,2.8,20.062-.408c-2.839-2.718-5.511-5.311-8.229-7.855-.9-.844-3.326-.931-4.169-.052C5.092-5.632,2.617-2.854,0,0"/>
      </g>
      <g id="Group_28" data-name="Group 28" transform="translate(200.82 -142.34)">
        <path id="Path_90" data-name="Path 90" class="cls-1" d="M0,0C-2.879-2.667-5.558-5.168-8.261-7.641c-.928-.85-3.381-1.1-4.2-.26-2.631,2.678-5.158,5.459-7.7,8.169,2.65,2.789,5.113,5.42,7.623,8.006,1.151,1.187,3.35,1.484,4.266.535C-5.648,6.094-3.1,3.312,0,0"/>
      </g>
      <g id="Group_29" data-name="Group 29" transform="translate(228.856 -142.319)">
        <path id="Path_91" data-name="Path 91" class="cls-1" d="M0,0C2.607,2.741,5.022,5.333,7.5,7.859c.934.951,3.718,1.479,4.375.832C14.563,6.05,17.18,3.34,19.97.5c-2.648-2.774-5.111-5.4-7.629-7.97a3.827,3.827,0,0,0-5.129-.068C4.784-5.128,2.476-2.6,0,0"/>
      </g>
      <g id="Group_30" data-name="Group 30" transform="translate(227.489 -83.961)">
        <path id="Path_92" data-name="Path 92" class="cls-1" d="M0,0C2.687,2.836,5.183,5.522,7.742,8.146c.978,1,3.027,1.167,3.84.316,2.65-2.773,5.239-5.6,8.022-8.595C16.922-2.9,14.346-5.662,11.649-8.3a3.329,3.329,0,0,0-4.168.048C4.984-5.573,2.558-2.831,0,0"/>
      </g>
      <g id="Group_31" data-name="Group 31" transform="translate(176.456 -141.869)">
        <path id="Path_93" data-name="Path 93" class="cls-1" d="M0,0C-2.662-2.812-5.19-5.539-7.791-8.2c-.948-.97-3.349-1.107-4.2-.216-2.6,2.729-5.107,5.541-8.027,8.731,2.779,2.6,5.449,5.111,8.128,7.609a3.289,3.289,0,0,0,4.544-.076C-4.93,5.335-2.576,2.762,0,0"/>
      </g>
      <g id="Group_32" data-name="Group 32" transform="translate(82.879 -103.205)">
        <path id="Path_94" data-name="Path 94" class="cls-1" d="M0,0C-1.9-2.048-3.618-3.919-5.355-5.773c-.688-.735-1.387-1.462-2.124-2.146a3.1,3.1,0,0,0-4.651.161q-3.247,3.646-6.4,7.377A1.415,1.415,0,0,0-18.689.934c2.3,2.549,4.6,5.094,7.041,7.508A3.264,3.264,0,0,0-7.217,8.22C-4.793,5.557-2.459,2.813,0,0"/>
      </g>
      <g id="Group_33" data-name="Group 33" transform="translate(59.526 -102.906)">
        <path id="Path_95" data-name="Path 95" class="cls-1" d="M0,0C-2.622-2.813-5.035-5.49-7.553-8.066c-1.5-1.539-3.119-1.458-4.591.128q-3.32,3.579-6.522,7.268A1.371,1.371,0,0,0-18.733.648c2.284,2.562,4.6,5.1,7,7.552a3.281,3.281,0,0,0,4.208.124C-4.979,5.622-2.536,2.82,0,0"/>
      </g>
      <g id="Group_34" data-name="Group 34" transform="translate(51.783 -112.591)">
        <path id="Path_96" data-name="Path 96" class="cls-1" d="M0,0C2.521,2.7,4.984,5.42,7.545,8.045a3.229,3.229,0,0,0,4.572-.07c2.249-2.44,4.417-4.955,6.56-7.49a1.379,1.379,0,0,0,.094-1.313C16.337-3.422,13.882-6,11.325-8.472A3,3,0,0,0,7.231-8.2C4.868-5.547,2.53-2.872,0,0"/>
      </g>
      <g id="Group_35" data-name="Group 35" transform="translate(202.634 -26.611)">
        <path id="Path_97" data-name="Path 97" class="cls-1" d="M0,0A12.444,12.444,0,0,0,2.495-1.564C4.663-3.913,6.707-6.376,8.848-8.751c.607-.674.632-1.146,0-1.792-2.2-2.234-4.329-4.549-6.571-6.745a3.386,3.386,0,0,0-5.1.2c-2.041,2.227-4.022,4.51-6.082,6.718-.721.77-.743,1.305.011,2.077C-6.875-6.217-4.971-4.02-2.918-1.97A19.213,19.213,0,0,0,0,0"/>
      </g>
      <g id="Group_36" data-name="Group 36" transform="translate(75.333 -112.55)">
        <path id="Path_98" data-name="Path 98" class="cls-1" d="M0,0C2.6,2.709,5.09,5.57,7.905,8.066c.73.647,3.013.708,3.655.084,2.776-2.7,5.209-5.754,8.024-8.974C16.838-3.454,14.292-5.933,11.7-8.36,10.583-9.4,8.446-9.47,7.555-8.487,5.053-5.73,2.6-2.929,0,0"/>
      </g>
      <g id="Group_37" data-name="Group 37" transform="translate(270.893 -63.952)">
        <path id="Path_99" data-name="Path 99" class="cls-1" d="M0,0C-2.538-2.834-4.938-5.6-7.44-8.27c-1.007-1.074-3.614-1.014-4.683.089C-14.587-5.64-16.959-3.009-19.448-.33-16.656,2.587-14,5.431-11.257,8.188a3.061,3.061,0,0,0,3.993-.226C-4.889,5.411-2.562,2.814,0,0"/>
      </g>
      <g id="Group_38" data-name="Group 38" transform="translate(47.926 -93.028)">
        <path id="Path_100" data-name="Path 100" class="cls-1" d="M0,0C-2.675-2.926-5.131-5.647-7.629-8.331a2.838,2.838,0,0,0-4.432.032C-14.18-5.905-16.3-3.515-18.34-1.054A1.664,1.664,0,0,0-18.4.539q3.2,3.8,6.591,7.442a3.1,3.1,0,0,0,4.534.082C-4.806,5.437-2.438,2.717,0,0"/>
      </g>
      <g id="Group_39" data-name="Group 39" transform="translate(223.156 -84.263)">
        <path id="Path_101" data-name="Path 101" class="cls-1" d="M0,0C-1.545-1.7-3-3.331-4.485-4.928c-.97-1.041-1.936-2.1-3-3.034a3.539,3.539,0,0,0-4.961.3c-2.284,2.56-4.512,5.17-6.872,7.884,2.632,2.753,5.136,5.6,7.934,8.128a3.57,3.57,0,0,0,3.468.144C-5.131,5.865-2.655,2.91,0,0"/>
      </g>
      <g id="Group_40" data-name="Group 40" transform="translate(271.858 -44.377)">
        <path id="Path_102" data-name="Path 102" class="cls-1" d="M0,0C-.656-.665-1.538-1.493-2.343-2.389-4.114-4.362-5.812-6.4-7.61-8.349c-.93-1.005-3.648-1.226-4.669-.281-2.553,2.362-4.988,4.852-7.757,7.572,2.965,2.868,5.7,5.565,8.5,8.2A3.921,3.921,0,0,0-6.6,7.053C-4.46,4.834-2.385,2.557,0,0"/>
      </g>
      <g id="Group_41" data-name="Group 41" transform="translate(235.945 -36.386)">
        <path id="Path_103" data-name="Path 103" class="cls-1" d="M0,0C-2.6-2.607-5.095-5.221-7.72-7.7a2.926,2.926,0,0,0-4.022.111C-14.427-5.023-16.825-2.162-19.4.644c2.666,2.841,5.18,5.592,7.781,8.259a3.148,3.148,0,0,0,4.386-.33C-4.844,5.787-2.5,2.968,0,0"/>
      </g>
      <g id="Group_42" data-name="Group 42" transform="translate(61.482 -141.001)">
        <path id="Path_104" data-name="Path 104" class="cls-1" d="M0,0C2.82,2.645,5.6,5.289,8.431,7.887a3.459,3.459,0,0,0,4.189-.313c2.464-2.541,4.836-5.17,7.4-7.928-2.812-2.862-5.4-5.694-8.231-8.265a2.658,2.658,0,0,0-3.695-.147C5.46-6.065,2.964-3.23,0,0"/>
      </g>
      <g id="Group_43" data-name="Group 43" transform="translate(118.066 -36.315)">
        <path id="Path_105" data-name="Path 105" class="cls-1" d="M0,0C-2.658-2.736-5.251-5.476-7.931-8.126a3.235,3.235,0,0,0-3.994.154c-1.686,1.652-3.371,3.306-5.02,4.994-.847.867-1.617,1.809-2.493,2.8,2.73,2.915,5.291,5.7,7.91,8.424a3.059,3.059,0,0,0,4.519.02C-4.669,5.614-2.429,2.876,0,0"/>
      </g>
      <g id="Group_44" data-name="Group 44" transform="translate(37.898 -141.156)">
        <path id="Path_106" data-name="Path 106" class="cls-1" d="M0,0C2.375,2.338,4.774,4.683,7.152,7.047c1.806,1.794,3.68,2.074,5.487.358,2.472-2.347,4.713-4.94,7.344-7.739C17.044-3.181,14.363-6.008,11.4-8.5c-.865-.729-2.548-1.458-3.811-.044C5.116-5.781,2.66-3,0,0"/>
      </g>
      <g id="Group_45" data-name="Group 45" transform="translate(152.679 -141.936)">
        <path id="Path_107" data-name="Path 107" class="cls-1" d="M0,0C-2.815-2.843-5.449-5.73-8.358-8.307a2.674,2.674,0,0,0-3.781.267c-2.268,2.5-4.551,4.995-6.757,7.554A1.5,1.5,0,0,0-18.915.963c2.315,2.46,4.676,4.881,7.1,7.23a3.224,3.224,0,0,0,4.328-.022C-5.007,5.55-2.606,2.855,0,0"/>
      </g>
      <g id="Group_46" data-name="Group 46" transform="translate(200.394 -122.578)">
        <path id="Path_108" data-name="Path 108" class="cls-1" d="M0,0C-2.747-2.817-5.248-5.584-7.988-8.088c-1-.916-2.847-1.649-3.978-.513-2.45,2.464-4.592,5.24-6.792,7.943A1.405,1.405,0,0,0-18.663.693c2.29,2.48,4.562,4.989,7.031,7.284.99.919,2.642,1.579,3.826.408C-5.124,5.733-2.649,2.874,0,0"/>
      </g>
      <g id="Group_47" data-name="Group 47" transform="translate(39.009 -44.706)">
        <path id="Path_109" data-name="Path 109" class="cls-1" d="M0,0C2.407,2.423,4.718,4.779,7.063,7.1,9,9.01,10.925,9.039,12.789,7.057c2.065-2.2,4.036-4.484,5.96-6.805a1.63,1.63,0,0,0,0-1.579q-3.36-3.537-6.9-6.9A3.263,3.263,0,0,0,6.839-8C4.588-5.416,2.383-2.791,0,0"/>
      </g>
      <g id="Group_48" data-name="Group 48" transform="translate(87.146 -102.873)">
        <path id="Path_110" data-name="Path 110" class="cls-1" d="M0,0C2.623,2.666,5.123,5.425,7.9,7.873c.689.607,2.769.737,3.347.185,2.835-2.713,5.38-5.73,8.077-8.695-2.584-2.756-4.934-5.33-7.367-7.823-1.079-1.107-3.5-1.345-4.308-.43C5.1-6.024,2.642-3.085,0,0"/>
      </g>
      <g id="Group_49" data-name="Group 49" transform="translate(235.037 -74.533)">
        <path id="Path_111" data-name="Path 111" class="cls-1" d="M0,0C-2.674-2.786-5.248-5.543-7.917-8.2c-.837-.835-3.253-.691-4.045.144C-14.28-5.612-16.568-3.133-18.793-.6A1.508,1.508,0,0,0-18.736.861q3.4,3.742,6.955,7.349a3.031,3.031,0,0,0,4.148.206c2.55-2.7,5-5.5,7.633-8.416"/>
      </g>
      <g id="Group_50" data-name="Group 50" transform="translate(223.276 -64.819)">
        <path id="Path_112" data-name="Path 112" class="cls-1" d="M0,0C-2.687-2.819-5.2-5.554-7.831-8.178a3.4,3.4,0,0,0-4.544.218c-2.156,2.354-4.293,4.729-6.349,7.17A1.652,1.652,0,0,0-18.639.8c2.23,2.448,4.534,4.829,6.852,7.193a2.885,2.885,0,0,0,4.355.045C-4.978,5.481-2.615,2.839,0,0"/>
      </g>
      <g id="Group_51" data-name="Group 51" transform="translate(247.454 -103.467)">
        <path id="Path_113" data-name="Path 113" class="cls-1" d="M0,0C-2.563-2.7-4.945-5.257-7.376-7.762-8.125-8.533-11.052-9-11.6-8.424c-2.681,2.818-5.308,5.687-8.386,9,2.842,2.654,5.5,5.182,8.213,7.649a2.889,2.889,0,0,0,3.994.119C-5.2,5.653-2.689,2.9,0,0"/>
      </g>
      <g id="Group_52" data-name="Group 52" transform="translate(203.764 -102.855)">
        <path id="Path_114" data-name="Path 114" class="cls-1" d="M0,0C2.778,2.557,5.434,5.008,8.1,7.449a3.076,3.076,0,0,0,4.492-.116C14.77,4.988,16.931,2.624,19.021.2a1.667,1.667,0,0,0,.167-1.572Q15.926-5.011,12.474-8.48c-1.183-1.184-3.544-1.363-4.44-.4C5.5-6.144,3.027-3.354,0,0"/>
      </g>
      <g id="Group_53" data-name="Group 53" transform="translate(40.378 -83.108)">
        <path id="Path_115" data-name="Path 115" class="cls-1" d="M0,0C2.5,2.637,4.934,5.3,7.477,7.855a3.045,3.045,0,0,0,4.293.02c2.527-2.733,4.958-5.556,7.5-8.42-2.568-2.686-4.983-5.28-7.475-7.8-1.56-1.575-3.225-1.434-4.717.266C4.77-5.453,2.472-2.822,0,0"/>
      </g>
      <g id="Group_54" data-name="Group 54" transform="translate(253.081 -26.546)">
        <path id="Path_116" data-name="Path 116" class="cls-1" d="M0,0C2.417,2.581,4.645,4.95,6.861,7.329c1.009,1.083,5.2,1.65,6.222.6,2.252-2.321,4.331-4.808,6.675-7.445-2.812-2.736-5.391-5.346-8.089-7.829a4.448,4.448,0,0,0-5.625.3C4-4.761,2.041-2.391,0,0"/>
      </g>
      <g id="Group_55" data-name="Group 55" transform="translate(251.663 -103.107)">
        <path id="Path_117" data-name="Path 117" class="cls-1" d="M0,0C2.737,2.849,5.24,5.528,7.833,8.118a2.965,2.965,0,0,0,4.244-.177c2.214-2.388,4.406-4.8,6.522-7.274a1.674,1.674,0,0,0,.032-1.608q-2.9-3.482-5.99-6.8c-1.016-1.085-3.882-1.525-4.612-.769C5.364-5.743,2.755-2.928,0,0"/>
      </g>
      <g id="Group_56" data-name="Group 56" transform="translate(239.563 -93.478)">
        <path id="Path_118" data-name="Path 118" class="cls-1" d="M0,0C2.668,2.8,5.132,5.436,7.666,8.006a2.787,2.787,0,0,0,3.937.252c2.616-2.816,5.174-5.686,7.909-8.7-2.563-2.628-5.087-5.284-7.7-7.853a3.5,3.5,0,0,0-4.051.006C5.187-5.6,2.667-2.856,0,0"/>
      </g>
      <g id="Group_57" data-name="Group 57" transform="translate(169.122 -36.134)">
        <path id="Path_119" data-name="Path 119" class="cls-1" d="M0,0C2.649,2.824,5.139,5.519,7.681,8.163c.87.9,3.272,1.046,4.009.219C14.206,5.559,16.655,2.676,19.312-.4,16.63-3.141,14.1-5.965,11.3-8.473a2.856,2.856,0,0,0-3.852.32C4.948-5.555,2.574-2.835,0,0"/>
      </g>
      <g id="Group_58" data-name="Group 58" transform="translate(200.178 -45.669)">
        <path id="Path_120" data-name="Path 120" class="cls-1" d="M0,0C-2.867-2.917-5.558-5.828-8.48-8.482a3.153,3.153,0,0,0-3.073-.081c-2.79,2.6-5.329,5.466-7.932,8.213,2.69,2.833,5.157,5.474,7.675,8.063a3.2,3.2,0,0,0,4.915.006C-4.646,5.28-2.47,2.773,0,0"/>
      </g>
      <g id="Group_59" data-name="Group 59" transform="translate(188.055 -55.416)">
        <path id="Path_121" data-name="Path 121" class="cls-1" d="M0,0C-2.755-2.852-5.288-5.672-8.059-8.235a2.785,2.785,0,0,0-3.857-.046C-14.521-5.631-16.951-2.809-19.5,0c2.66,2.754,5.189,5.408,7.764,8.019.971.986,3.151,1.2,4.037.28C-5.118,5.627-2.638,2.856,0,0"/>
      </g>
      <g id="Group_60" data-name="Group 60" transform="translate(122.165 -36.333)">
        <path id="Path_122" data-name="Path 122" class="cls-1" d="M0,0C2.688,2.824,5.243,5.608,7.917,8.272a3.14,3.14,0,0,0,4.419-.329C14.4,5.656,16.39,3.312,18.455,1.03a1.2,1.2,0,0,0-.007-1.955c-2.316-2.37-4.56-4.81-6.894-7.163a3.115,3.115,0,0,0-4.4.081C4.791-5.441,2.5-2.811,0,0"/>
      </g>
      <g id="Group_61" data-name="Group 61" transform="translate(157.087 -46.03)">
        <path id="Path_123" data-name="Path 123" class="cls-1" d="M0,0C2.657,2.8,5.126,5.429,7.63,8.024c1.167,1.21,3.305,1.523,4.247.521,2.541-2.7,4.989-5.489,7.983-8.807C17-2.881,14.253-5.4,11.492-7.9a3.314,3.314,0,0,0-4.309-.05C4.769-5.358,2.427-2.7,0,0"/>
      </g>
      <g id="Group_62" data-name="Group 62" transform="translate(236.057 -133.307)">
        <path id="Path_124" data-name="Path 124" class="cls-1" d="M0,0C-2.47-2.538-4.782-5.083-7.29-7.417a3.042,3.042,0,0,0-4.057.04c-2.832,2.658-5.391,5.606-8.118,8.5,2.533,2.674,4.878,5.265,7.357,7.721A2.867,2.867,0,0,0-7.645,8.61C-5.161,5.832-2.694,3.036,0,0"/>
      </g>
      <g id="Group_63" data-name="Group 63" transform="translate(58.889 -122.025)">
        <path id="Path_125" data-name="Path 125" class="cls-1" d="M0,0C-2.5-2.771-4.95-5.325-7.2-8.052a2.772,2.772,0,0,0-3.829-.8A4.414,4.414,0,0,0-12.39-7.778c-1.964,2.285-3.919,4.578-5.788,6.94a1.644,1.644,0,0,0,0,1.573q3.111,3.525,6.4,6.889a3.389,3.389,0,0,0,4.758.054C-4.5,5.035-2.082,2.288,0,0"/>
      </g>
      <g id="Group_64" data-name="Group 64" transform="translate(187.856 -74.809)">
        <path id="Path_126" data-name="Path 126" class="cls-1" d="M0,0C-2.63-2.752-5.04-5.529-7.762-7.958c-.772-.689-3.011-.965-3.618-.4-2.833,2.638-5.33,5.637-7.949,8.51,2.348,2.537,4.516,4.881,6.685,7.222.242.261.489.518.751.757a3.219,3.219,0,0,0,4.66-.139C-4.865,5.427-2.545,2.817,0,0"/>
      </g>
      <g id="Group_65" data-name="Group 65" transform="translate(28.693 -73.009)">
        <path id="Path_127" data-name="Path 127" class="cls-1" d="M0,0C2.391,2.57,4.662,5.06,6.991,7.493c.95.993,3.353,1.469,3.988.766,2.726-3.014,5.38-6.092,8.085-9.175C16.487-3.661,14.132-6.235,11.7-8.734A2.8,2.8,0,0,0,7.646-8.9C5.115-6.012,2.637-3.076,0,0"/>
      </g>
      <g id="Group_66" data-name="Group 66" transform="translate(164.899 -36.425)">
        <path id="Path_128" data-name="Path 128" class="cls-1" d="M0,0C-2.608-2.724-5.036-5.313-7.532-7.837c-1.04-1.051-3.321-1.248-4.2-.305C-14.271-5.43-16.7-2.622-19.243.22c2.67,2.832,5.243,5.608,7.876,8.327A3.171,3.171,0,0,0-7.394,8.48C-4.952,5.75-2.574,2.963,0,0"/>
      </g>
      <g id="Group_67" data-name="Group 67" transform="translate(235.441 -54.889)">
        <path id="Path_129" data-name="Path 129" class="cls-1" d="M0,0C-2.773-2.878-5.376-5.63-8.043-8.317a3.566,3.566,0,0,0-4.191,0c-2.487,2.6-4.889,5.282-7.406,8.019,2.792,2.867,5.42,5.675,8.179,8.346A2.584,2.584,0,0,0-7.762,8C-5.163,5.5-2.727,2.835,0,0"/>
      </g>
      <g id="Group_68" data-name="Group 68" transform="translate(133.589 -46.032)">
        <path id="Path_130" data-name="Path 130" class="cls-1" d="M0,0C2.664,2.809,5.165,5.495,7.726,8.125a3.122,3.122,0,0,0,4.432.083c2.186-2.339,4.3-4.744,6.373-7.186A1.549,1.549,0,0,0,18.6-.467c-2.361-2.581-4.751-5.139-7.251-7.584a3.115,3.115,0,0,0-4.408.26C4.637-5.25,2.373-2.667,0,0"/>
      </g>
      <g id="Group_69" data-name="Group 69" transform="translate(106.277 -46.004)">
        <path id="Path_131" data-name="Path 131" class="cls-1" d="M0,0C-2.778-2.66-5.389-5.33-8.2-7.764c-.978-.844-2.693-1.715-3.813-.623C-14.794-5.68-17.287-2.681-20.1.424l7.559,7.317a3.416,3.416,0,0,0,5.252-.1c1.755-1.76,3.521-3.508,5.257-5.286C-1.42,1.732-.887,1.036,0,0"/>
      </g>
      <g id="Group_70" data-name="Group 70" transform="translate(140.858 -132.279)">
        <path id="Path_132" data-name="Path 132" class="cls-1" d="M0,0C-2.636-2.7-5.067-5.467-7.828-7.853c-.823-.711-3.144-.981-3.787-.384-2.8,2.591-5.229,5.577-7.827,8.457,1.845,1.938,3.5,3.79,5.286,5.508A12.664,12.664,0,0,0-10.645,8.36c.939.407,2.678.507,3.256-.066C-4.8,5.725-2.5,2.866,0,0"/>
      </g>
      <g id="Group_71" data-name="Group 71" transform="translate(215.944 -93.557)">
        <path id="Path_133" data-name="Path 133" class="cls-1" d="M0,0C2.489,2.683,4.839,5.267,7.252,7.79c1.1,1.151,3.084,1.447,3.972.514,2.721-2.862,5.344-5.818,8.117-8.86C16.756-3.223,14.328-5.817,11.794-8.3a3.3,3.3,0,0,0-4.436.184C4.91-5.467,2.508-2.773,0,0"/>
      </g>
      <g id="Group_72" data-name="Group 72" transform="translate(211.506 -94.318)">
        <path id="Path_134" data-name="Path 134" class="cls-1" d="M0,0C-2.523-2.626-4.94-5.216-7.449-7.714a3.6,3.6,0,0,0-4.335.041c-2.465,2.708-4.872,5.471-7.4,8.325,2.506,2.7,4.929,5.369,7.429,7.966.931.967,3.21,1.064,4,.185C-5.18,5.958-2.676,3.049,0,0"/>
      </g>
      <g id="Group_73" data-name="Group 73" transform="translate(122.349 -113.085)">
        <path id="Path_135" data-name="Path 135" class="cls-1" d="M0,0C2.5,2.7,4.931,5.359,7.411,7.971c.9.944,3.293,1.3,4.01.524,2.639-2.844,5.187-5.769,7.833-8.734C16.741-2.854,14.438-5.312,12.065-7.7a3.342,3.342,0,0,0-5.325.131C4.511-5.121,2.332-2.625,0,0"/>
      </g>
      <g id="Group_74" data-name="Group 74" transform="translate(240.543 -35.75)">
        <path id="Path_136" data-name="Path 136" class="cls-1" d="M0,0C2.451,2.62,4.775,5.127,7.126,7.608a3.526,3.526,0,0,0,5.469-.1c1.961-2.215,3.822-4.523,5.852-6.672.824-.873.782-1.384-.006-2.169-2.1-2.089-4.119-4.25-6.206-6.347A3.616,3.616,0,0,0,7.525-7.9C4.968-5.377,2.556-2.7,0,0"/>
      </g>
      <g id="Group_75" data-name="Group 75" transform="translate(199.576 -84.428)">
        <path id="Path_137" data-name="Path 137" class="cls-1" d="M0,0C-2.565-2.723-4.972-5.327-7.441-7.871c-.916-.944-3.3-1.269-3.994-.524C-14.08-5.557-16.649-2.648-19.242.229c2.583,2.762,4.981,5.376,7.439,7.934a3.025,3.025,0,0,0,4.254.143C-5.055,5.621-2.615,2.885,0,0"/>
      </g>
      <g id="Group_76" data-name="Group 76" transform="translate(223.931 -45.345)">
        <path id="Path_138" data-name="Path 138" class="cls-1" d="M0,0C-2.827-2.9-5.392-5.79-8.27-8.32a3.762,3.762,0,0,0-3.652-.117c-2.734,2.4-5.134,5.185-8.034,8.222,2.994,2.824,5.768,5.49,8.6,8.09,1.075.984,2.6,1.433,3.656.4C-5.042,5.679-2.619,2.847,0,0"/>
      </g>
      <g id="Group_77" data-name="Group 77" transform="translate(99.03 -112.897)">
        <path id="Path_139" data-name="Path 139" class="cls-1" d="M0,0C2.552,2.746,4.966,5.426,7.477,8.011a3.3,3.3,0,0,0,4.463.031c2.269-2.5,4.44-5.09,6.586-7.7a1.378,1.378,0,0,0-.034-1.335q-3.383-3.654-6.9-7.18c-.873-.871-3.311-.949-4.058-.145C5-5.591,2.535-2.809,0,0"/>
      </g>
      <g id="Group_78" data-name="Group 78" transform="translate(211.322 -74.771)">
        <path id="Path_140" data-name="Path 140" class="cls-1" d="M0,0C-2.657-2.744-5.172-5.577-7.982-8.076A3.589,3.589,0,0,0-11.47-8.2C-14.255-5.6-16.727-2.66-19.322.166c2.638,2.821,5.066,5.482,7.573,8.068a3.115,3.115,0,0,0,4.277.137C-5,5.679-2.6,2.92,0,0"/>
      </g>
      <g id="Group_79" data-name="Group 79" transform="translate(212.03 -132.948)">
        <path id="Path_141" data-name="Path 141" class="cls-1" d="M0,0C-2.527-2.6-4.909-5.331-7.626-7.67a3.78,3.78,0,0,0-3.679.007C-14.157-5.037-16.679-2.052-19.417.9c2.645,2.71,5.048,5.426,7.759,7.788.762.664,2.992.874,3.581.3C-5.248,6.232-2.751,3.133,0,0"/>
      </g>
      <g id="Group_80" data-name="Group 80" transform="translate(98.748 -93.385)">
        <path id="Path_142" data-name="Path 142" class="cls-1" d="M0,0C2.48,2.593,4.811,5.1,7.226,7.526c1.2,1.208,3.441,1.353,4.421.3q3.5-3.768,6.832-7.685a1.518,1.518,0,0,0,.033-1.463c-2.2-2.393-4.444-4.747-6.762-7.025-1.1-1.083-3.332-1.2-4.139-.3C5.088-5.84,2.618-2.983,0,0"/>
      </g>
      <g id="Group_81" data-name="Group 81" transform="translate(239.596 -54.939)">
        <path id="Path_143" data-name="Path 143" class="cls-1" d="M0,0C2.829,2.928,5.493,5.775,8.269,8.511a2.606,2.606,0,0,0,3.561-.149c2.709-2.447,5.181-5.156,7.909-7.931C17.021-2.386,14.416-5.3,11.556-7.931A2.869,2.869,0,0,0,7.7-7.971C5.071-5.427,2.6-2.716,0,0"/>
      </g>
      <g id="Group_82" data-name="Group 82" transform="translate(192.188 -55.381)">
        <path id="Path_144" data-name="Path 144" class="cls-1" d="M0,0C2.847,2.935,5.5,5.88,8.434,8.522c.587.53,2.619.352,3.287-.26,2.69-2.469,5.108-5.237,7.794-8.07C16.706-2.683,14.1-5.6,11.178-8.165a3.7,3.7,0,0,0-3.607-.022C4.9-5.7,2.571-2.846,0,0"/>
      </g>
      <g id="Group_83" data-name="Group 83" transform="translate(168.815 -93.673)">
        <path id="Path_145" data-name="Path 145" class="cls-1" d="M0,0C2.634,2.749,5.1,5.541,7.843,8.026a3.4,3.4,0,0,0,3.309.135c2.811-2.743,5.332-5.781,8.056-8.828C16.681-3.349,14.327-5.918,11.886-8.4,10.845-9.46,8.3-9.54,7.439-8.572,4.967-5.8,2.566-2.968,0,0"/>
      </g>
      <g id="Group_84" data-name="Group 84" transform="translate(82.199 -45.752)">
        <path id="Path_146" data-name="Path 146" class="cls-1" d="M0,0C-2.637-2.634-5.082-5.118-7.58-7.548-8.622-8.562-11.066-9-11.719-8.291c-2.589,2.827-5.116,5.71-7.757,8.674,2.449,2.524,4.8,5.006,7.219,7.425A3.486,3.486,0,0,0-6.85,7.746C-4.562,5.275-2.383,2.706,0,0"/>
      </g>
      <g id="Group_85" data-name="Group 85" transform="translate(164.561 -94.187)">
        <path id="Path_147" data-name="Path 147" class="cls-1" d="M0,0C-2.566-2.732-4.864-5.456-7.493-7.81c-.82-.734-3.155-1.111-3.737-.55C-14.06-5.636-16.53-2.538-19.2.512c2.55,2.66,4.963,5.259,7.473,7.759a3.146,3.146,0,0,0,4.412-.124C-4.908,5.545-2.573,2.875,0,0"/>
      </g>
      <g id="Group_86" data-name="Group 86" transform="translate(188.274 -132.714)">
        <path id="Path_148" data-name="Path 148" class="cls-1" d="M0,0C-2.683-2.722-5.22-5.537-8.063-8c-.653-.565-2.794-.389-3.5.262C-14.334-5.187-16.8-2.313-19.455.516-17.951,2.1-16.582,3.564-15.182,5A38.43,38.43,0,0,0-11.507,8.6a2.718,2.718,0,0,0,3.866-.042C-5.093,5.834-2.667,3,0,0"/>
      </g>
      <g id="Group_87" data-name="Group 87" transform="translate(180.258 -64.969)">
        <path id="Path_149" data-name="Path 149" class="cls-1" d="M0,0C2.683,2.809,5.108,5.581,7.821,8.036c.74.668,2.886.961,3.463.427C14.127,5.835,16.66,2.871,19.4-.074c-2.716-2.834-5.227-5.512-7.809-8.119a3.331,3.331,0,0,0-4.168.027C4.959-5.525,2.561-2.828,0,0"/>
      </g>
      <g id="Group_88" data-name="Group 88" transform="translate(156.798 -64.99)">
        <path id="Path_150" data-name="Path 150" class="cls-1" d="M0,0C2.643,2.753,5.172,5.47,7.8,8.087a2.992,2.992,0,0,0,4.117-.174c2.177-2.337,4.33-4.7,6.4-7.131A1.81,1.81,0,0,0,18.4-.954c-2.178-2.493-4.444-4.913-6.743-7.3-.887-.92-3.25-1.042-3.981-.248C5.125-5.721,2.615-2.9,0,0"/>
      </g>
      <g id="Group_89" data-name="Group 89" transform="translate(98.323 -54.982)">
        <path id="Path_151" data-name="Path 151" class="cls-1" d="M0,0C2.442,2.5,4.809,4.966,7.227,7.38a3.228,3.228,0,0,0,4.939.016c2.2-2.318,4.305-4.728,6.362-7.172a1.645,1.645,0,0,0-.03-1.591Q15.231-5,11.788-8.469a3.153,3.153,0,0,0-4.133-.15C5.108-5.828,2.631-2.973,0,0"/>
      </g>
      <g id="Group_90" data-name="Group 90" transform="translate(157.31 -122.822)">
        <path id="Path_152" data-name="Path 152" class="cls-1" d="M0,0C2.778,2.911,5.278,5.586,7.845,8.195a3.113,3.113,0,0,0,4.146.019c2.28-2.4,4.495-4.863,6.676-7.355a1.355,1.355,0,0,0,.039-1.312Q15.132-4.269,11.425-7.96a3.585,3.585,0,0,0-4.449-.014C4.646-5.392,2.392-2.743,0,0"/>
      </g>
      <g id="Group_91" data-name="Group 91" transform="translate(94.583 -36.139)">
        <path id="Path_153" data-name="Path 153" class="cls-1" d="M0,0C-2.861-2.859-5.513-5.732-8.447-8.28c-.711-.618-2.866-.7-3.481-.11-2.665,2.554-5.006,5.447-7.755,8.542,2.753,2.619,5.361,5.112,7.982,7.59a3.531,3.531,0,0,0,4.747.028C-4.6,5.289-2.385,2.681,0,0"/>
      </g>
      <g id="Group_92" data-name="Group 92" transform="translate(71.146 -93.376)">
        <path id="Path_154" data-name="Path 154" class="cls-1" d="M0,0C-2.6-2.775-5.011-5.385-7.464-7.952c-.957-1-3.049-1.316-3.819-.481-2.64,2.858-5.19,5.8-7.856,8.8,2.621,2.727,5.124,5.412,7.725,8a3.094,3.094,0,0,0,4.3-.248C-4.721,5.5-2.428,2.783,0,0"/>
      </g>
      <g id="Group_93" data-name="Group 93" transform="translate(85.604 -84.273)">
        <path id="Path_155" data-name="Path 155" class="cls-1" d="M0,0A9.467,9.467,0,0,0,1.648-1.142C3.883-3.672,6.1-6.222,8.242-8.829A1.528,1.528,0,0,0,8.177-10.3c-2.2-2.4-4.442-4.771-6.757-7.063a3.229,3.229,0,0,0-4.607.337c-2.1,2.414-4.16,4.86-6.292,7.243-.634.709-.532,1.184.072,1.8,2,2.025,3.885,4.167,5.978,6.084A16.567,16.567,0,0,0,0,0"/>
      </g>
      <g id="Group_94" data-name="Group 94" transform="translate(83.182 -84.381)">
        <path id="Path_156" data-name="Path 156" class="cls-1" d="M0,0C-2.77-2.61-5.371-5.1-8.021-7.54c-.975-.9-3.113-.977-3.873-.129-2.554,2.848-5.047,5.75-7.782,8.881,2.57,2.5,5.077,5,7.664,7.417a3.234,3.234,0,0,0,4.549-.16C-5.078,5.851-2.774,3.159,0,0"/>
      </g>
      <g id="Group_95" data-name="Group 95" transform="translate(51.259 -35.437)">
        <path id="Path_157" data-name="Path 157" class="cls-1" d="M0,0C2.658,2.419,5.227,4.7,7.735,7.055c2.31,2.164,3.866,2.2,5.977-.149C15.5,4.925,17.225,2.887,18.871.79A1.78,1.78,0,0,0,18.9-.92c-2.439-2.588-4.961-5.1-7.5-7.588a3.172,3.172,0,0,0-3.982-.013C5.095-5.915,2.829-3.261,0,0"/>
      </g>
      <g id="Group_96" data-name="Group 96" transform="translate(106.062 -65.146)">
        <path id="Path_158" data-name="Path 158" class="cls-1" d="M0,0C-2.59-2.694-4.963-5.42-7.646-7.8c-.794-.7-3.062-1.046-3.625-.5-2.808,2.739-5.273,5.831-7.905,8.851,2.514,2.614,4.863,5.109,7.276,7.54,1.049,1.056,3.464,1.307,4.263.438C-5.085,5.76-2.6,2.92,0,0"/>
      </g>
      <g id="Group_97" data-name="Group 97" transform="translate(145.111 -55.36)">
        <path id="Path_159" data-name="Path 159" class="cls-1" d="M0,0C2.641,2.743,5.189,5.454,7.814,8.088a3.008,3.008,0,0,0,4.006-.115c2.488-2.684,4.893-5.443,7.454-8.31-2.677-2.77-5.179-5.537-7.9-8.074a2.645,2.645,0,0,0-3.69-.09C5.06-5.79,2.607-2.908,0,0"/>
      </g>
      <g id="Group_98" data-name="Group 98" transform="translate(164.45 -132.583)">
        <path id="Path_160" data-name="Path 160" class="cls-1" d="M0,0C-2.637-2.734-5.114-5.356-7.66-7.912A3.469,3.469,0,0,0-11.7-7.956c-2.58,2.754-5.079,5.584-7.8,8.6,1.582,1.525,3.1,3.008,4.645,4.472A45.954,45.954,0,0,0-11.2,8.469a2.672,2.672,0,0,0,3.713-.034C-4.963,5.773-2.6,2.958,0,0"/>
      </g>
      <g id="Group_99" data-name="Group 99" transform="translate(140.954 -55.715)">
        <path id="Path_161" data-name="Path 161" class="cls-1" d="M0,0C-2.614-2.758-5.024-5.437-7.6-7.948a2.723,2.723,0,0,0-3.817-.323c-2.7,2.706-5.157,5.658-7.852,8.667,2.663,2.771,5.127,5.575,7.893,8.041A3.565,3.565,0,0,0-7.895,8.5C-5.122,5.881-2.662,2.93,0,0"/>
      </g>
      <g id="Group_100" data-name="Group 100" transform="translate(145.201 -74.616)">
        <path id="Path_162" data-name="Path 162" class="cls-1" d="M0,0C2.629,2.779,5.036,5.565,7.741,8.023c.713.648,2.876.841,3.469.283,2.823-2.655,5.334-5.641,8.014-8.572-2.63-2.772-5.037-5.386-7.535-7.912a3.091,3.091,0,0,0-4.506.12C4.828-5.476,2.528-2.844,0,0"/>
      </g>
      <g id="Group_101" data-name="Group 101" transform="translate(165.04 -113.308)">
        <path id="Path_163" data-name="Path 163" class="cls-1" d="M0,0C-2.393-2.514-4.611-4.886-6.877-7.214c-2.03-2.086-3.841-2.017-5.8.162-1.029,1.144-2.036,2.309-3.061,3.456-1.164,1.3-2.338,2.6-3.532,3.92C-16.742,3-14.381,5.563-11.932,8.045-10.72,9.272-8.5,9.377-7.515,8.31-5.027,5.621-2.6,2.88,0,0"/>
      </g>
      <g id="Group_102" data-name="Group 102" transform="translate(110.167 -64.804)">
        <path id="Path_164" data-name="Path 164" class="cls-1" d="M0,0C2.611,2.706,5.06,5.444,7.749,7.921A2.7,2.7,0,0,0,11.442,8c2.635-2.7,5.093-5.583,7.749-8.533-2.645-2.753-5.08-5.5-7.771-7.974a2.739,2.739,0,0,0-3.856.073C5.009-5.729,2.585-2.9,0,0"/>
      </g>
      <g id="Group_103" data-name="Group 103" transform="translate(248.172 -26.14)">
        <path id="Path_165" data-name="Path 165" class="cls-1" d="M0,0C-2.58-2.694-5.027-5.351-7.592-7.89a3.657,3.657,0,0,0-5.384.189c-2.24,2.515-4.384,5.116-6.6,7.718,2.1,2.345,4.079,4.611,6.135,6.809.258.278.89.244,1.356.282,1.417.118,2.836.236,4.256.273a2.044,2.044,0,0,0,1.393-.369C-4.32,4.788-2.274,2.5,0,0"/>
      </g>
      <g id="Group_104" data-name="Group 104" transform="translate(152.686 -65.236)">
        <path id="Path_166" data-name="Path 166" class="cls-1" d="M0,0C-2.645-2.8-5.06-5.4-7.53-7.947c-.983-1.012-3.2-1.247-4.014-.372C-14.115-5.557-16.6-2.714-19.219.209c2.673,2.812,5.135,5.616,7.854,8.145a2.681,2.681,0,0,0,3.832-.091C-5.016,5.6-2.59,2.853,0,0"/>
      </g>
      <g id="Group_105" data-name="Group 105" transform="translate(122.081 -93.607)">
        <path id="Path_167" data-name="Path 167" class="cls-1" d="M0,0C1.78,1.911,3.506,3.777,5.25,5.626c.691.733,1.391,1.465,2.145,2.131a3.255,3.255,0,0,0,4.524-.211C14.088,5.191,16.229,2.81,18.3.365a1.67,1.67,0,0,0,.02-1.613c-2.112-2.4-4.276-4.77-6.528-7.043a3.116,3.116,0,0,0-4.745.244C4.739-5.418,2.438-2.787,0,0"/>
      </g>
      <g id="Group_106" data-name="Group 106" transform="translate(157.412 -103.343)">
        <path id="Path_168" data-name="Path 168" class="cls-1" d="M0,0C2.471,2.687,4.8,5.37,7.31,7.875c1.02,1.02,2.757,1.426,3.807.368,2.776-2.8,5.285-5.854,7.965-8.881-2.528-2.63-4.859-5.153-7.3-7.562a3.078,3.078,0,0,0-4.629.211C4.814-5.394,2.491-2.786,0,0"/>
      </g>
      <g id="Group_107" data-name="Group 107" transform="translate(27.87 -36.018)">
        <path id="Path_169" data-name="Path 169" class="cls-1" d="M0,0C2.807,2.91,5.486,5.733,8.22,8.5a3.227,3.227,0,0,0,4.551.128c2.338-2.4,4.517-4.964,6.561-7.236C16.407-1.685,13.769-4.729,10.8-7.4a3.881,3.881,0,0,0-3.778.044A98.459,98.459,0,0,0,0,0"/>
      </g>
      <g id="Group_108" data-name="Group 108" transform="translate(83.386 -140.923)">
        <path id="Path_170" data-name="Path 170" class="cls-1" d="M0,0A10.372,10.372,0,0,0-2.144,1.288q-3.144,3.258-6.125,6.67c-.277.317-.411,1.227-.195,1.439,2.689,2.653,5.392,5.3,8.231,7.787a2.916,2.916,0,0,0,4-.283c1.966-2.213,3.864-4.484,5.833-6.694.62-.7.523-1.167-.1-1.788-2.308-2.3-4.536-4.676-6.885-6.931A12.729,12.729,0,0,0,0,0"/>
      </g>
      <g id="Group_109" data-name="Group 109" transform="translate(192.372 -151.786)">
        <path id="Path_171" data-name="Path 171" class="cls-1" d="M0,0C2.653,2.783,5.121,5.41,7.635,7.994a3.2,3.2,0,0,0,4.936-.017C14.6,5.828,16.558,3.6,18.578,1.438c.778-.833.929-1.5-.006-2.369a20.62,20.62,0,0,1-2.888-3.126A7.384,7.384,0,0,0,7.83-7.168,3.817,3.817,0,0,0,5.816-6.3C3.831-4.275,1.959-2.142,0,0"/>
      </g>
      <g id="Group_110" data-name="Group 110" transform="translate(117.256 -131.857)">
        <path id="Path_172" data-name="Path 172" class="cls-1" d="M0,0C-2.562-2.764-5.018-5.548-7.636-8.173a2.769,2.769,0,0,0-3.813-.175c-2.695,2.631-5.121,5.535-8,8.711,1.689,1.551,3.263,3.062,4.909,4.49a22.545,22.545,0,0,0,4.291,3.321,3.633,3.633,0,0,0,3.324-.209C-4.47,5.506-2.328,2.737,0,0"/>
      </g>
      <g id="Group_111" data-name="Group 111" transform="translate(110.768 -103.03)">
        <path id="Path_173" data-name="Path 173" class="cls-1" d="M0,0C2.476,2.6,4.868,5.218,7.381,7.713a3.132,3.132,0,0,0,4.365-.276q3.28-3.618,6.436-7.344a1.526,1.526,0,0,0,.105-1.451C16.081-3.832,13.826-6.267,11.5-8.633,10.455-9.7,8.186-9.7,7.362-8.735,4.945-5.9,2.56-3.043,0,0"/>
      </g>
      <g id="Group_112" data-name="Group 112" transform="translate(82.161 -121.63)">
        <path id="Path_174" data-name="Path 174" class="cls-1" d="M0,0C-2.618-3.063-4.963-5.883-7.4-8.621a2.8,2.8,0,0,0-4.075-.195c-2.49,2.653-4.814,5.463-7.224,8.232,2.59,2.719,4.969,5.269,7.41,7.757,1.114,1.137,3.318,1.379,4.311.356C-4.354,4.83-1.853,2.013,0,0"/>
      </g>
      <g id="Group_113" data-name="Group 113" transform="translate(212.057 -113.531)">
        <path id="Path_175" data-name="Path 175" class="cls-1" d="M0,0C-2.523-2.579-4.926-5.1-7.413-7.543A3.414,3.414,0,0,0-11.6-7.607c-2.351,2.5-4.669,5.038-6.926,7.624a1.507,1.507,0,0,0,0,1.467c2.195,2.4,4.434,4.772,6.75,7.061a2.877,2.877,0,0,0,4.2-.123C-5.1,5.713-2.667,2.971,0,0"/>
      </g>
      <g id="Group_114" data-name="Group 114" transform="translate(248.172 -45.484)">
        <path id="Path_176" data-name="Path 176" class="cls-1" d="M0,0C-2.922-2.692-5.706-5.261-8.493-7.826a2.944,2.944,0,0,0-3.875-.19c-2.711,2.35-5.123,5.046-7.494,7.446,2.9,3.062,5.53,6.029,8.39,8.756a2.562,2.562,0,0,0,3.812.1C-5.267,5.752-2.922,3.168,0,0"/>
      </g>
      <g id="Group_115" data-name="Group 115" transform="translate(110.327 -83.963)">
        <path id="Path_177" data-name="Path 177" class="cls-1" d="M0,0C2.489,2.663,4.8,5.2,7.183,7.657c1.133,1.17,3.3,1.35,4.28.317C14.05,5.23,16.542,2.4,19.119-.448c-2.616-2.774-5.059-5.42-7.573-8a3.04,3.04,0,0,0-3.979-.009C5.054-5.716,2.6-2.919,0,0"/>
      </g>
      <g id="Group_116" data-name="Group 116" transform="translate(260.142 -113.797)">
        <path id="Path_178" data-name="Path 178" class="cls-1" d="M0,0C-2.47-2.257-4.911-4.5-7.367-6.726c-.8-.724-3.748-1.109-4.374-.466C-14.449-4.407-17.1-1.562-19.8,1.3c2.305,2.457,4.5,4.777,6.669,7.114,1.881,2.021,3.552,2.07,5.4.071C-5.325,5.881-2.953,3.244,0,0"/>
      </g>
      <g id="Group_117" data-name="Group 117" transform="translate(133.626 -84.127)">
        <path id="Path_179" data-name="Path 179" class="cls-1" d="M0,0C2.528,2.678,4.992,5.374,7.562,7.967a3.225,3.225,0,0,0,4.275-.248C14.032,5.318,16.2,2.895,18.3.412a1.629,1.629,0,0,0,.049-1.567q-3.345-3.672-6.867-7.178a2.99,2.99,0,0,0-4.246.112C4.828-5.552,2.481-2.826,0,0"/>
      </g>
      <g id="Group_118" data-name="Group 118" transform="translate(188.534 -113.384)">
        <path id="Path_180" data-name="Path 180" class="cls-1" d="M0,0C-2.546-2.624-4.943-5.16-7.421-7.617c-1.046-1.036-3.341-1.243-4.172-.371-2.6,2.731-5.124,5.543-7.7,8.354l6.724,7.094c.2.216.4.444.615.643a3.247,3.247,0,0,0,4.569-.032C-4.955,5.483-2.587,2.834,0,0"/>
      </g>
      <g id="Group_119" data-name="Group 119" transform="translate(176.1 -84.516)">
        <path id="Path_181" data-name="Path 181" class="cls-1" d="M0,0C-2.557-2.7-4.968-5.461-7.635-7.947c-.928-.866-2.631-1.468-3.8-.26-2.625,2.7-5.077,5.578-7.7,8.5,2.689,2.824,5.187,5.662,7.943,8.224A2.522,2.522,0,0,0-7.549,8.41C-5.045,5.661-2.579,2.878,0,0"/>
      </g>
      <g id="Group_120" data-name="Group 120" transform="translate(51.035 -132.579)">
        <path id="Path_182" data-name="Path 182" class="cls-1" d="M0,0C2.82,2.967,5.434,5.955,8.346,8.617c.765.7,3.025,1,3.619.441,2.561-2.412,4.759-5.21,7.407-8.231-3-2.863-5.829-5.626-8.73-8.314a2.785,2.785,0,0,0-4.056.233C4.343-4.821,2.135-2.355,0,0"/>
      </g>
      <g id="Group_121" data-name="Group 121" transform="translate(134.061 -103.255)">
        <path id="Path_183" data-name="Path 183" class="cls-1" d="M0,0C2.444,2.669,4.749,5.457,7.383,7.886c.723.667,2.987.84,3.6.254,2.832-2.722,5.331-5.788,8.031-8.825C16.438-3.354,14.062-5.9,11.587-8.35a3.123,3.123,0,0,0-4.176-.129C4.928-5.718,2.518-2.891,0,0"/>
      </g>
      <g id="Group_122" data-name="Group 122" transform="translate(260.661 -133.857)">
        <path id="Path_184" data-name="Path 184" class="cls-1" d="M0,0C-2.213-2.1-4.394-4.182-6.581-6.252c-1-.95-4.128-1.263-5.115-.305C-14.4-3.931-17-1.185-19.741,1.623c2.535,2.733,4.868,5.482,7.489,7.924A2.43,2.43,0,0,0-8.772,9.5C-5.979,6.449-3.164,3.422,0,0"/>
      </g>
      <g id="Group_123" data-name="Group 123" transform="translate(74.912 -54.432)">
        <path id="Path_185" data-name="Path 185" class="cls-1" d="M0,0C2.493,2.5,4.913,5.171,7.64,7.479a3.578,3.578,0,0,0,3.486-.164c2.8-2.681,5.287-5.681,8.008-8.7-2.6-2.65-5.025-5.225-7.57-7.677A3.081,3.081,0,0,0,7.5-8.695C5.014-5.853,2.564-2.979,0,0"/>
      </g>
      <g id="Group_124" data-name="Group 124" transform="translate(199.999 -103.767)">
        <path id="Path_186" data-name="Path 186" class="cls-1" d="M0,0C-2.574-2.657-5-5.238-7.523-7.728c-.982-.969-3.281-1.106-4.061-.278C-14.132-5.3-16.6-2.531-19.16.273c2.6,2.784,5.014,5.553,7.659,8.078.869.83,2.4,1.612,3.614.329C-5.248,5.892-2.716,3,0,0"/>
      </g>
      <g id="Group_125" data-name="Group 125" transform="translate(224.559 -25.706)">
        <path id="Path_187" data-name="Path 187" class="cls-1" d="M0,0C-3.073-3.255-5.588-6.163-8.408-8.737c-.749-.684-3-.93-3.6-.363C-14.8-6.434-17.259-3.415-19.849-.509A47.261,47.261,0,0,1-15.728,4.2,5.592,5.592,0,0,0-9.6,6.924c.9-.159,2.015-.106,2.64-.622C-4.6,4.349-2.4,2.2,0,0"/>
      </g>
      <g id="Group_126" data-name="Group 126" transform="translate(133.895 -122.729)">
        <path id="Path_188" data-name="Path 188" class="cls-1" d="M0,0C2.747,2.854,5.246,5.539,7.85,8.116A3.085,3.085,0,0,0,12.137,7.9c.964-.963,1.891-1.963,2.8-2.981C16.369,3.309,17.772,1.666,18.91.357c-1.422-1.608-2.607-3.009-3.857-4.35-1.291-1.385-2.6-2.763-3.988-4.047-.952-.881-3.25-.875-4.04,0C4.693-5.445,2.43-2.79,0,0"/>
      </g>
      <g id="Group_127" data-name="Group 127" transform="translate(140.958 -74.902)">
        <path id="Path_189" data-name="Path 189" class="cls-1" d="M0,0C-2.6-2.751-4.994-5.539-7.693-8c-.721-.657-2.909-.881-3.478-.329-2.784,2.7-5.249,5.731-7.88,8.7C-16.461,3.092-14,5.732-11.463,8.3a3.315,3.315,0,0,0,4.036.027C-4.949,5.626-2.545,2.863,0,0"/>
      </g>
      <g id="Group_128" data-name="Group 128" transform="translate(216.469 -112.71)">
        <path id="Path_190" data-name="Path 190" class="cls-1" d="M0,0C2.53,2.678,4.895,5.327,7.437,7.793a2.6,2.6,0,0,0,3.669.308C13.9,5.309,16.489,2.319,19.289-.73c-2.532-2.61-4.928-5.144-7.4-7.6-.931-.922-3.427-.77-4.345.2C5.061-5.5,2.626-2.836,0,0"/>
      </g>
      <g id="Group_129" data-name="Group 129" transform="translate(128.78 -141.802)">
        <path id="Path_191" data-name="Path 191" class="cls-1" d="M0,0C-2.712-2.721-5.3-5.391-7.983-7.967a3.575,3.575,0,0,0-4,.207c-2.324,2.678-4.6,5.4-6.927,8.149,2.328,2.589,4.567,5.183,6.928,7.662a3.2,3.2,0,0,0,4.971-.119C-4.7,5.393-2.458,2.789,0,0"/>
      </g>
      <g id="Group_130" data-name="Group 130" transform="translate(93.275 -151.011)">
        <path id="Path_192" data-name="Path 192" class="cls-1" d="M0,0C-2.335-2.475-4.463-4.773-6.645-7.02c-.781-.8-5.322-.885-6.064-.083-2.243,2.427-4.416,4.919-6.707,7.488,2.573,2.671,5.074,5.349,7.675,7.927.973.964,3.269.75,4.312-.338C-4.974,5.412-2.587,2.786,0,0"/>
      </g>
      <g id="Group_131" data-name="Group 131" transform="translate(36.188 -158.656)">
        <path id="Path_193" data-name="Path 193" class="cls-1" d="M0,0-.108-.435c-1.033.42-2.4.56-3.038,1.314C-5.215,3.307-7.058,5.935-8.879,8.562a1.812,1.812,0,0,0,.246,1.707c1.729,1.786,3.56,3.475,5.39,5.16A4.025,4.025,0,0,0,2.37,15.2C4.5,12.9,6.548,10.514,8.682,8.212c.692-.745.607-1.259-.065-1.935-1.5-1.512-3.007-3.031-4.4-4.642C3.08.317,1.818-.456,0,0"/>
      </g>
      <g id="Group_132" data-name="Group 132" transform="translate(106.343 -122.465)">
        <path id="Path_194" data-name="Path 194" class="cls-1" d="M0,0C-1.828-1.672-3.365-3.032-4.85-4.449c-1.157-1.1-2.211-2.318-3.379-3.408a3.061,3.061,0,0,0-4.27.138c-2.294,2.547-4.492,5.18-6.875,7.946,2.734,2.724,5.261,5.477,8.08,7.888.737.631,2.9.745,3.526.158C-4.975,5.67-2.5,2.725,0,0"/>
      </g>
      <g id="Group_133" data-name="Group 133" transform="translate(119.991 -36.731)">
        <path id="Path_195" data-name="Path 195" class="cls-1" d="M0,0A14.146,14.146,0,0,0,2.679-1.705c2.05-2.137,4.009-4.363,5.914-6.632a1.646,1.646,0,0,0,0-1.589q-3.4-3.753-6.976-7.346a2.917,2.917,0,0,0-4.091.115c-2.213,2.391-4.4,4.81-6.51,7.292a1.632,1.632,0,0,0,.076,1.573q3.2,3.577,6.577,6.988A10.47,10.47,0,0,0,0,0"/>
      </g>
      <g id="Group_134" data-name="Group 134" transform="translate(106.943 -26.164)">
        <path id="Path_196" data-name="Path 196" class="cls-1" d="M0,0C-2.612-2.817-4.969-5.309-7.268-7.853c-2.119-2.344-3.7-2.357-5.806.054-1.793,2.051-3.534,4.153-5.4,6.135A1.4,1.4,0,0,0-18.49.59c1.831,1.934,3.62,3.91,5.507,5.788,1.07,1.065,5.335,1,6.495-.079C-4.329,4.282-2.244,2.188,0,0"/>
      </g>
      <g id="Group_135" data-name="Group 135" transform="translate(140.961 -151.901)">
        <path id="Path_197" data-name="Path 197" class="cls-1" d="M0,0C-1.521-1.317-3.15-2.325-4.231-3.749-6.316-6.5-8.967-7.226-12.158-6.73a2.513,2.513,0,0,0-1.417.532C-15.652-3.87-17.659-1.479-19.687.89c2.679,2.734,5.192,5.5,7.942,7.994a2.658,2.658,0,0,0,3.687-.069C-5.442,6.1-2.956,3.253,0,0"/>
      </g>
      <g id="Group_136" data-name="Group 136" transform="translate(27.781 -52.079)">
        <path id="Path_198" data-name="Path 198" class="cls-1" d="M0,0A84.011,84.011,0,0,0,6.955,6.068a3.354,3.354,0,0,0,4.21-.267c2.641-2.782,5.094-5.742,7.727-8.748-2.453-2.5-4.756-4.959-7.184-7.285a2.873,2.873,0,0,0-4.063.066C5.136-6.885,2.676-3.566,0,0"/>
      </g>
      <g id="Group_137" data-name="Group 137" transform="translate(157.615 -26.471)">
        <path id="Path_199" data-name="Path 199" class="cls-1" d="M0,0C2.1,2.308,4.1,4.555,6.149,6.755c.856.917,5.132,1.388,6.016.5,2.351-2.366,4.543-4.891,6.871-7.431C16.451-2.937,14.058-5.551,11.6-8.1a3.312,3.312,0,0,0-4.812.145C4.533-5.374,2.337-2.747,0,0"/>
      </g>
      <g id="Group_138" data-name="Group 138" transform="translate(49.895 -150.369)">
        <path id="Path_200" data-name="Path 200" class="cls-1" d="M0,0C2.606,2.521,5.158,5.073,7.811,7.516a2.726,2.726,0,0,0,3.7.1c2.825-2.658,5.423-5.558,8.135-8.389-2.267-2.448-4.253-4.645-6.322-6.762-.282-.289-.973-.218-1.479-.24-1.168-.054-2.34-.106-3.507-.074-.6.018-1.428.006-1.764.368C4.44-5.178,2.417-2.778,0,0"/>
      </g>
      <g id="Group_139" data-name="Group 139" transform="translate(17.494 -26.336)">
        <path id="Path_201" data-name="Path 201" class="cls-1" d="M0,0C1.192,1.48,2.365,2.746,3.317,4.161c1.791,2.66,3.951,4.319,7.366,3.4.889-.241,2.068-.092,2.661-.626,2.093-1.885,3.989-3.99,6.217-6.273-2.726-2.633-5.333-5.128-7.915-7.65-1.962-1.918-3.561-1.983-5.48.049C4.093-4.749,2.149-2.433,0,0"/>
      </g>
      <g id="Group_140" data-name="Group 140" transform="translate(260.383 -149.699)">
        <path id="Path_202" data-name="Path 202" class="cls-1" d="M0,0A4.151,4.151,0,0,0-.289-.6Q-3.1-3.918-5.919-7.228c-1.088-1.274-5.9-2.366-7.147-1.347-2.356,1.919-4.5,4.094-6.746,6.172,2.727,2.914,5.228,5.588,7.73,8.26C-11,7.014-8.434,7.37-7.2,6.344-4.76,4.3-2.417,2.141,0,0"/>
      </g>
      <g id="Group_141" data-name="Group 141" transform="translate(216.113 -152.012)">
        <path id="Path_203" data-name="Path 203" class="cls-1" d="M0,0C2.967,2.945,5.757,5.756,8.6,8.516a2.59,2.59,0,0,0,3.541.121c2.7-2.464,5.152-5.193,7.844-7.966-2.148-2.375-4.145-4.622-6.2-6.812a1.992,1.992,0,0,0-1.266-.353c-1.581-.068-3.168-.142-4.746-.074a3.633,3.633,0,0,0-2.221.621C3.687-4.134,1.984-2.158,0,0"/>
      </g>
      <g id="Group_142" data-name="Group 142" transform="translate(187.924 -151.44)">
        <path id="Path_204" data-name="Path 204" class="cls-1" d="M0,0A43.449,43.449,0,0,1-4.072-4.495c-1.9-2.783-4.487-3.308-7.517-2.841a3.1,3.1,0,0,0-1.641.479c-2.1,2.135-4.114,4.357-6.143,6.537,2.619,2.8,5.1,5.5,7.627,8.145a3.114,3.114,0,0,0,4.55,0C-4.8,5.294-2.47,2.694,0,0"/>
      </g>
      <g id="Group_144" data-name="Group 144" transform="translate(144.775 -151.545)">
        <path id="Path_206" data-name="Path 206" class="cls-1" d="M0,0C2.556,2.68,4.982,5.272,7.465,7.811a3.134,3.134,0,0,0,4.825-.022C14.413,5.554,16.4,3.188,18.528.96c.83-.869.7-1.443-.05-2.223-1.525-1.577-3-3.2-4.463-4.838a2.183,2.183,0,0,0-2.925-.7,4.741,4.741,0,0,1-3.568.163c-1.053-.532-1.482-.3-2.06.358C3.665-4.231,1.886-2.171,0,0"/>
      </g>
      <g id="Group_145" data-name="Group 145" transform="translate(111.021 -26.531)">
        <path id="Path_207" data-name="Path 207" class="cls-1" d="M0,0C2,2.2,3.846,4.259,5.718,6.3c1.179,1.283,5.415,1.758,6.663.571C14.68,4.684,16.825,2.34,19.1,0c-2.454-2.612-4.777-5.121-7.141-7.59-2.032-2.122-3.614-2.143-5.61.08C4.145-5.057,2.081-2.475,0,0"/>
      </g>
      <g id="Group_146" data-name="Group 146" transform="translate(46.319 -131.104)">
        <path id="Path_208" data-name="Path 208" class="cls-1" d="M0,0C-2.842-2.981-5.432-5.735-8.067-8.445-9.15-9.56-11.555-9.98-12.4-9.116c-2.253,2.305-4.4,4.717-6.609,7.108,2.8,3.087,5.434,6.042,8.13,8.941.94,1.01,3.435,1.315,4.154.536C-4.405,4.957-2.146,2.392,0,0"/>
      </g>
      <g id="Group_147" data-name="Group 147" transform="translate(41.053 -26.242)">
        <path id="Path_209" data-name="Path 209" class="cls-1" d="M0,0C1.27,1.518,2.534,2.857,3.6,4.341,5.3,6.7,7.134,8.355,10.226,6.668A1.69,1.69,0,0,1,11.277,6.6c2.609.506,4.05-1.058,5.357-2.932a19.838,19.838,0,0,1,1.789-2.208c.648-.691.709-1.183-.036-1.913-2.369-2.32-4.652-4.729-6.976-7.1C9.881-9.109,8.168-9.192,6.69-7.6,4.441-5.167,2.307-2.632,0,0"/>
      </g>
      <g id="Group_148" data-name="Group 148" transform="translate(116.858 -151.176)">
        <path id="Path_210" data-name="Path 210" class="cls-1" d="M0,0C-2.258-2.358-4.313-4.568-6.443-6.7c-.911-.912-5.247-1.132-6.068-.275-2.322,2.425-4.551,4.939-6.8,7.4,1.182,1.088,2.33,2.1,3.426,3.164,1.532,1.486,3,3.041,4.541,4.515a3.055,3.055,0,0,0,4.375-.01C-4.641,5.5-2.411,2.812,0,0"/>
      </g>
      <g id="Group_149" data-name="Group 149" transform="translate(129.014 -122.014)">
        <path id="Path_211" data-name="Path 211" class="cls-1" d="M0,0C-1.973-2.353-3.709-4.455-5.486-6.521a19.283,19.283,0,0,0-2.019-2,3.157,3.157,0,0,0-4.282.223q-3.023,3.495-5.87,7.139A1.524,1.524,0,0,0-17.645.3q3.335,3.578,6.824,7.008a3.085,3.085,0,0,0,4.151.047C-4.238,4.773-1.9,2.106,0,0"/>
      </g>
      <g id="Group_150" data-name="Group 150" transform="translate(64.408 -26.41)">
        <path id="Path_212" data-name="Path 212" class="cls-1" d="M0,0A36.982,36.982,0,0,1,3.88,4.217C5.713,6.928,8.179,7.706,11.2,7.21a3.5,3.5,0,0,0,1.983-.9c1.882-2.175,3.636-4.461,5.653-6.977-2.547-2.453-5.1-4.925-7.672-7.381a2.832,2.832,0,0,0-4.221.027C4.6-5.437,2.371-2.751,0,0"/>
      </g>
      <g id="Group_151" data-name="Group 151" transform="translate(277.216 -44.957)">
        <path id="Path_213" data-name="Path 213" class="cls-1" d="M0,0-.88-.312C-.447,1.939-1.9,2.771-3.271,3.665c-1.886,1.227-3.744,2.5-5.654,3.682-1.112.69-2.3,1.253-3.811,2.061,2.348,2.285,4.231,4.161,6.178,5.967A1.966,1.966,0,0,0-5.2,15.68c2.374-.2,4.82,2.408,3.927,4.463a8.243,8.243,0,0,1-5.717,4.619,2.5,2.5,0,0,0-2.115,1.98c.872,0,1.579-.031,2.281.006a4.228,4.228,0,0,0,4.466-2.726,21.829,21.829,0,0,0,2.5-9.355C.117,10.645.046,6.623,0,2.6-.008,1.733,0,.867,0,0"/>
      </g>
      <g id="Group_152" data-name="Group 152" transform="translate(8.327 -139.828)">
        <path id="Path_214" data-name="Path 214" class="cls-1" d="M0,0C0,4.463-.091,9.072.082,13.671a3.609,3.609,0,0,0,1.8,2.373c.442.253,1.539-.452,2.245-.882,1.7-1.039,3.224-2.584,5.057-3.154,2.084-.649,2.994-2.257,4.408-3.374A29.268,29.268,0,0,0,0,0"/>
      </g>
      <g id="Group_153" data-name="Group 153" transform="translate(265.529 -151.862)">
        <path id="Path_215" data-name="Path 215" class="cls-1" d="M0,0C1.215.937,2.35,1.883,3.559,2.723,4.73,3.535,6,4.208,7.186,5c.962.642,1.876,1.358,2.8,2.057,1.317.992,3.034.738,3.089-.523A22.6,22.6,0,0,0,9.788-6.585c-1.27.08-2.3.178-3.322.2-1.243.027-2.49.04-3.73-.038-1.113-.07-1.6.4-1.767,1.472C.709-3.322.34-1.71,0,0"/>
      </g>
      <g id="Group_154" data-name="Group 154" transform="translate(102.829 -157.839)">
        <path id="Path_216" data-name="Path 216" class="cls-1" d="M0,0-.267-.557H-15.178A64.889,64.889,0,0,0-9.373,5.366c.832.668,2.913.918,3.65.351A56.052,56.052,0,0,0,0,0"/>
      </g>
      <g id="Group_155" data-name="Group 155" transform="translate(63.942 -158.537)">
        <path id="Path_217" data-name="Path 217" class="cls-1" d="M0,0C2.271,2.335,4.076,4.434,6.162,6.2c.7.591,2.549.856,3.118.375A84.867,84.867,0,0,0,15.388.423C15.271.282,15.155.142,15.04,0Z"/>
      </g>
      <g id="Group_156" data-name="Group 156" transform="translate(55.435 -158.162)">
        <path id="Path_218" data-name="Path 218" class="cls-1" d="M0,0C-.109-.144-.219-.286-.328-.43H-15.173a62.4,62.4,0,0,0,5.61,5.794c.911.74,3.083,1.249,3.758.708A55.95,55.95,0,0,0,0,0"/>
      </g>
      <g id="Group_157" data-name="Group 157" transform="translate(126.445 -158.426)">
        <path id="Path_219" data-name="Path 219" class="cls-1" d="M0,0H-15.141c2.073,2.178,3.783,4.051,5.58,5.834.893.886,3.317,1.024,4.062.241C-3.714,4.2-2.016,2.239,0,0"/>
      </g>
      <g id="Group_158" data-name="Group 158" transform="translate(182.428 -158.882)">
        <path id="Path_220" data-name="Path 220" class="cls-1" d="M0,0C2.2,2.342,4.037,4.332,5.935,6.26a1.77,1.77,0,0,0,1.274.313c3.994-.373,4.932-4.148,7.43-6.2L14.371,0Z"/>
      </g>
      <g id="Group_159" data-name="Group 159" transform="translate(245.781 -158.497)">
        <path id="Path_221" data-name="Path 221" class="cls-1" d="M0,0H-14.559c1.55,1.783,2.893,3.342,4.252,4.887a3.3,3.3,0,0,0,4.656.459C-3.831,3.778-2.149,2.049,0,0"/>
      </g>
      <g id="Group_160" data-name="Group 160" transform="translate(173.578 -158.647)">
        <path id="Path_222" data-name="Path 222" class="cls-1" d="M0,0H-14.294c1.8,1.973,3.387,3.791,5.059,5.53a2.565,2.565,0,0,0,3.654.187C-3.679,4.071-2.038,2.123,0,0"/>
      </g>
      <g id="Group_161" data-name="Group 161" transform="translate(220.783 -158.63)">
        <path id="Path_223" data-name="Path 223" class="cls-1" d="M0,0H-13.957c1.785,1.9,3.4,3.54,4.911,5.268a2.558,2.558,0,0,0,3.776.277A63.265,63.265,0,0,0,0,0"/>
      </g>
      <g id="Group_162" data-name="Group 162" transform="translate(255.372 -158.284)">
        <path id="Path_224" data-name="Path 224" class="cls-1" d="M0,0Q-.109.229-.22.458C1.608,2.6,3.4,4.783,5.3,6.862a1.862,1.862,0,0,0,1.644.25C9.11,6.309,10.6,2.754,9.692.66A1.251,1.251,0,0,0,8.774.029C5.851-.02,2.925,0,0,0"/>
      </g>
      <g id="Group_175" data-name="Group 175" transform="translate(270.919 -118.116)">
        <path id="Path_237" data-name="Path 237" class="cls-1" d="M0,0C1.718-.594,3.4-.816,4.4-2.445,2.655-3.337,1.548-2.717,0,0"/>
      </g>
      <g id="Group_176" data-name="Group 176" transform="translate(273.319 -61.608)">
        <path id="Path_238" data-name="Path 238" class="cls-1" d="M0,0C-1.738-1.539-2.691-1.077-4.164,1.751L0,0"/>
      </g>
      <g id="Group_177" data-name="Group 177" transform="translate(249.439 -159.52)">
        <path id="Path_239" data-name="Path 239" class="cls-1" d="M0,0C0-.048,0-.1,0-.144H-14.7c0,.048,0,.1,0,.144Z"/>
      </g>
      <g id="Group_178" data-name="Group 178" transform="translate(269.39 -99.85)">
        <path id="Path_240" data-name="Path 240" class="cls-1" d="M0,0,.276.461,3.663-1.525,3.2-2.286C1.513-2.513,1.021-.837,0,0"/>
      </g>
      <g id="Group_179" data-name="Group 179" transform="translate(269.716 -80.874)">
        <path id="Path_241" data-name="Path 241" class="cls-1" d="M0,0,.307.538,3.148-.906l-.309-.62C1.315-2.236.8-.81,0,0"/>
      </g>
      <g id="Group_183" data-name="Group 183" transform="translate(273.519 -42.538)">
        <path id="Path_245" data-name="Path 245" class="cls-1" d="M0,0-.423-.546-3.749,2.172l.3.391L0,0"/>
      </g>
      <g id="Group_184" data-name="Group 184" transform="translate(274.536 -45.867)">
        <path id="Path_246" data-name="Path 246" class="cls-1" d="M0,0-2.849-1.832C-1.364.333-1.364.333,0,0"/>
      </g>
      <g id="Group_185" data-name="Group 185" transform="translate(273.426 -159.21)">
        <path id="Path_247" data-name="Path 247" class="cls-1" d="M0,0,0-.209H-5.221l0,.209Z"/>
      </g>
    </g>
  </g>
</svg>
